<?xml version="1.0" encoding="UTF-8" standalone="no"?>
<!DOCTYPE svg PUBLIC "-//W3C//DTD SVG 1.1//EN" "http://www.w3.org/Graphics/SVG/1.1/DTD/svg11.dtd">
<svg width="100%" height="100%" viewBox="0 0 128 128" version="1.1" xmlns="http://www.w3.org/2000/svg" xmlns:xlink="http://www.w3.org/1999/xlink" xml:space="preserve" style="fill-rule:evenodd;clip-rule:evenodd;stroke-linejoin:round;stroke-miterlimit:1.41421;">
    <g transform="matrix(1.42041,0,0,1.42041,-7.02205,-7.1004)">
        <path d="M61.147,35.919C61.371,35.639 61.512,35.336 61.523,35.023C61.546,34.363 61.02,33.574 59.574,32.703C57.136,31.235 57.086,29.187 55.835,28.149C54.852,27.333 53.026,30.375 52.646,31.117C52.947,31.099 53.304,31.074 53.726,31.041C56.629,30.815 59.21,32.185 57.897,35.366C57.611,36.059 57.145,36.69 56.615,37.12C58.04,37.951 60.149,37.166 61.147,35.919Z" style="fill:none;"/>
    </g>
    <g transform="matrix(1.42041,0,0,1.42041,-7.02205,-7.1004)">
        <path d="M59.756,45.779C59.991,43.537 60.817,42.738 61.271,40.998C61.413,40.456 60.984,40.087 58.806,39.449C58.897,39.973 58.703,40.519 58.066,41.063C57.324,41.697 56.862,41.446 56.437,41.215C56.182,41.077 55.551,42.952 55.168,43.967C54.635,45.386 55.861,46.79 56.918,47.664C58.923,49.323 59.553,47.726 59.756,45.779Z" style="fill:none;"/>
    </g>
    <g transform="matrix(1.42041,0,0,1.42041,-7.02205,-7.1004)">
        <path d="M54.558,26.057C54.088,26.516 53.514,26.794 52.854,26.792C53.01,27.288 53.093,27.806 53.121,28.325C53.873,27.563 54.481,27.118 54.999,26.921C54.825,26.632 54.676,26.341 54.558,26.057Z" style="fill:none;"/>
    </g>
    <g transform="matrix(1.42041,0,0,1.42041,-7.02205,-7.1004)">
        <path d="M50.043,68.618C50.044,68.618 50.045,68.618 50.047,68.618C49.99,68.236 49.902,67.858 49.832,67.478C49.812,67.479 49.794,67.481 49.774,67.483C49.876,67.856 49.953,68.239 50.043,68.618Z" style="fill:none;"/>
    </g>
    <g transform="matrix(1.42041,0,0,1.42041,-7.02205,-7.1004)">
        <path d="M50.128,59.681C49.702,59.73 49.312,59.661 48.945,59.514C49.357,60.724 49.753,61.943 50.102,63.177C50.113,62.014 50.109,60.838 50.128,59.681Z" style="fill:none;"/>
    </g>
    <g transform="matrix(1.42041,0,0,1.42041,-7.02205,-7.1004)">
        <path d="M47.695,13.121C47.755,12.394 47.881,11.46 48.215,10.756C49.143,8.798 51.675,9.454 51.538,11.252C51.495,11.81 52.181,10.598 52.197,10.554C53.012,8.433 52.153,3.951 48.872,7.787C46.634,10.402 41.997,9.569 45.118,13.197C46.03,12.985 46.97,12.955 47.695,13.121Z" style="fill:none;"/>
    </g>
    <g transform="matrix(1.42041,0,0,1.42041,-7.02205,-7.1004)">
        <path d="M39.918,14.02C40.591,14.653 41.126,15.927 41.704,16.74C41.473,15.3 42.53,14.269 43.716,13.69C42.699,12.62 39.286,10.886 39.912,13.982L39.918,14.02Z" style="fill:none;"/>
    </g>
    <g transform="matrix(1.42041,0,0,1.42041,-7.02205,-7.1004)">
        <path d="M50.1,58.419C49.925,56.641 49.39,54.401 47.885,53.285C47.189,52.769 46.34,52.545 45.378,52.61C45.18,52.623 44.978,52.649 44.771,52.687C45.522,53.532 46.165,54.489 46.772,55.393C47.904,57.08 48.896,58.558 50.1,58.419Z" style="fill:none;"/>
    </g>
    <g transform="matrix(1.42041,0,0,1.42041,-7.02205,-7.1004)">
        <path d="M56.948,21.465C56.637,21.297 55.766,24.123 55.47,24.732C55.397,25.532 56.326,27.002 57.429,27.915C57.86,28.272 58.676,28.818 59.257,28.527C60.476,27.919 60.14,24.744 60.822,23.585C61.088,22.837 61.596,21.958 61.782,21.248C61.924,20.706 61.495,20.337 59.316,19.699C59.507,20.792 58.258,22.176 56.948,21.465Z" style="fill:none;"/>
    </g>
    <g transform="matrix(1.42041,0,0,1.42041,-7.02205,-7.1004)">
        <path d="M58.726,14.133C58.717,15.332 58.05,16.62 57.127,17.369C59.315,18.648 64.807,15.795 60.085,12.953C57.647,11.485 57.598,9.44 56.346,8.399C55.364,7.583 53.537,10.625 53.157,11.367C53.458,11.349 53.815,11.324 54.237,11.291C56.279,11.131 58.743,11.657 58.726,14.133Z" style="fill:none;"/>
    </g>
    <g transform="matrix(1.42041,0,0,1.42041,-7.02205,-7.1004)">
        <path d="M50.308,11.16C50.339,10.756 49.606,10.697 49.329,11.282C48.989,11.999 48.92,13.176 48.883,13.816C48.843,14.486 48.318,15.01 47.803,14.463C47.34,14.033 45.863,14.142 44.61,14.64C42.432,15.505 42.183,16.908 43.96,18.427C48.175,22.031 45.798,21.787 46.009,22.376C46.463,23.648 48.478,21.72 48.976,21.278C49.626,20.701 50.438,21.131 50.14,21.825C49.724,22.791 51.24,24.869 52.19,25.37C53.214,25.909 53.861,25.194 54.313,24.295C54.32,24.279 54.328,24.264 54.336,24.249C54.967,22.965 55.558,19.306 57.537,20.379C57.892,20.572 58.246,19.928 57.825,19.435C57.331,18.857 56.367,18.343 55.695,17.993L55.695,17.992L55.492,17.886L55.489,17.884C55.278,17.786 55.131,17.572 55.131,17.324C55.131,16.983 55.408,16.706 55.748,16.706C56.655,16.706 57.489,14.995 57.496,14.127C57.507,12.49 55.538,12.425 54.33,12.519C50.18,12.843 50.238,12.077 50.308,11.16ZM52.86,17.107C52.451,18.012 51.454,18.733 50.454,18.759C49.816,18.776 49.232,18.477 49.039,17.836C48.925,17.457 48.962,16.964 49.226,16.35C49.361,16.037 49.724,15.892 50.037,16.027C50.35,16.161 50.495,16.524 50.361,16.838C50.253,17.088 50.003,17.54 50.425,17.529C50.948,17.515 51.523,17.071 51.736,16.6C52.039,15.928 50.989,15.714 50.519,15.63C49.289,15.409 47.467,17.044 48.269,18.355C48.867,19.334 49.915,19.618 50.996,19.494C51.838,19.397 52.871,18.979 53.109,18.077C53.235,17.596 52.951,16.841 53.689,16.757C54.552,16.658 54.439,17.862 54.301,18.39C53.926,19.817 52.511,20.561 51.136,20.719C49.573,20.899 48.07,20.39 47.218,18.996C45.829,16.723 48.492,14.015 50.738,14.418C52.122,14.669 53.576,15.522 52.86,17.107Z" style="fill:none;"/>
    </g>
    <g transform="matrix(1.42041,0,0,1.42041,-7.02205,-7.1004)">
        <path d="M40.739,40.439C40.372,41.043 40.64,41.856 41.493,41.783C43.495,41.613 44.712,41.278 44.601,40.646C44.531,40.244 43.716,39.734 42.893,39.03C40.683,37.141 40.387,34.812 43.206,33.439C42.649,32.851 41.64,32.273 40.725,32.075L40.706,32.071C40.291,31.983 39.634,31.914 39.419,32.385C39.199,32.866 39.285,33.773 39.89,35.289C41.469,39.237 41.106,39.836 40.739,40.439Z" style="fill:none;"/>
    </g>
    <g transform="matrix(1.42041,0,0,1.42041,-7.02205,-7.1004)">
        <path d="M55.237,36.457C55.76,36.457 56.409,35.745 56.759,34.897C57.708,32.595 55.688,32.125 53.819,32.27C49.67,32.593 49.728,31.826 49.798,30.91C49.829,30.507 49.097,30.446 48.819,31.032C48.479,31.749 48.41,32.926 48.373,33.566C48.334,34.233 47.814,34.76 47.295,34.216C46.835,33.783 45.356,33.891 44.1,34.39C41.846,35.286 41.986,36.634 43.695,38.095C46.859,40.8 46.275,41.302 45.578,41.901C45.342,42.103 45.581,42.497 45.993,42.549C46.677,42.633 47.971,41.469 48.466,41.029C49.259,40.325 49.901,41.001 49.63,41.578C49.24,42.489 51.808,47.633 53.827,43.999C54.457,42.715 55.049,39.058 57.027,40.131C57.096,40.169 57.172,40.209 57.266,40.128C57.641,39.808 57.564,39.48 57.314,39.187C56.787,38.57 55.852,38.093 55.184,37.745L55.184,37.744L54.984,37.639L54.982,37.638C54.769,37.54 54.621,37.325 54.621,37.076C54.619,36.734 54.896,36.457 55.237,36.457ZM53.788,38.141C53.413,39.568 51.998,40.312 50.623,40.47C49.06,40.65 47.557,40.141 46.705,38.747C45.722,37.139 46.67,35.509 48.137,34.612C49.494,33.782 52.093,34.102 52.482,35.733C52.672,36.529 52.193,37.307 51.618,37.819C50.769,38.574 48.943,38.965 48.528,37.586C48.414,37.207 48.451,36.714 48.716,36.101C48.851,35.788 49.214,35.643 49.527,35.778C49.84,35.913 49.985,36.275 49.85,36.589C49.742,36.84 49.492,37.29 49.914,37.28C50.195,37.273 50.536,37.132 50.798,36.899C50.999,36.72 51.352,36.317 51.281,36.019C51.26,35.928 51.186,35.832 51.043,35.737C50.37,35.289 49.467,35.244 48.779,35.665C47.924,36.187 47.163,37.132 47.758,38.106C48.357,39.086 49.399,39.37 50.484,39.246C51.327,39.149 52.359,38.731 52.597,37.829C52.723,37.348 52.438,36.594 53.177,36.509C54.04,36.409 53.927,37.613 53.788,38.141Z" style="fill:none;"/>
    </g>
    <g transform="matrix(1.42041,0,0,1.42041,-7.02205,-7.1004)">
        <path d="M59.807,29.632C59.347,29.862 58.85,29.893 58.347,29.777C58.8,30.459 59.379,31.146 60.211,31.646C60.824,32.015 61.31,32.389 61.686,32.763C61.62,32.547 61.54,32.323 61.443,32.093C60.32,29.415 61.102,27.209 64.23,27.239C63.947,26.338 62.831,24.649 61.828,24.478C61.334,26.13 61.522,28.775 59.807,29.632Z" style="fill:none;"/>
    </g>
    <g transform="matrix(1.42041,0,0,1.42041,-7.02205,-7.1004)">
        <path d="M38.747,35.748C38,33.879 37.949,32.643 38.3,31.874C39.019,30.303 41.01,30.724 42.251,31.319C41.816,29.18 43.927,29.788 44.467,27.725C44.609,27.183 44.18,26.814 42.001,26.176C42.191,27.27 40.942,28.653 39.632,27.943C39.101,27.655 37.848,35.699 33.767,32.596C33.901,33.756 33.744,35.009 33.329,35.816C33.63,35.798 33.987,35.773 34.41,35.74C36.638,35.567 37.888,36.174 38.482,37.085C39.457,38.58 38.581,40.779 37.299,41.82C38.146,42.315 38.625,42.262 39.557,41.993C39.263,41.269 39.278,40.477 39.688,39.803C39.894,39.463 40.098,39.126 38.747,35.748Z" style="fill:none;"/>
    </g>
    <g transform="matrix(1.42041,0,0,1.42041,-7.02205,-7.1004)">
        <path d="M46.017,51.387C46.984,51.441 47.862,51.735 48.618,52.296C49.257,52.77 49.803,53.423 50.238,54.253C50.266,53.134 50.3,52.02 50.334,50.907C49.562,51.24 48.605,50.855 47.51,49.184C47.062,48.499 46.59,47.78 44.819,47.707C44.806,47.706 44.794,47.705 44.781,47.705C44.958,48.278 45.136,48.85 45.325,49.412C45.552,50.082 45.784,50.736 46.017,51.387Z" style="fill:none;"/>
    </g>
    <g transform="matrix(1.42041,0,0,1.42041,-7.02205,-7.1004)">
        <path d="M68.047,28.52C68.427,27.899 68.959,27.123 69.575,26.643C71.284,25.312 73.25,27.037 72.319,28.581C71.831,29.39 75.192,27.129 74.631,24.499C74.341,23.137 72.274,23.961 71.495,24.288C69.471,25.136 67.724,24.323 66.116,24.749C65.505,24.911 65.24,25.536 65.711,27.43C66.621,27.65 67.474,28.046 68.047,28.52Z" style="fill:none;"/>
    </g>
    <g transform="matrix(1.42041,0,0,1.42041,-7.02205,-7.1004)">
        <path d="M42.426,42.859C41.849,43.016 41.165,43.108 40.583,42.936C40.454,42.989 40.323,43.037 40.192,43.081C40.649,43.227 41.103,43.38 41.543,43.572C41.801,43.314 42.103,43.072 42.426,42.859Z" style="fill:none;"/>
    </g>
    <g transform="matrix(1.42041,0,0,1.42041,-7.02205,-7.1004)">
        <path d="M44.867,46.476C47.277,46.576 47.925,47.566 48.542,48.508C50.486,51.476 50.981,47.918 51.117,46.304L51.124,46.221L51.103,46.21C49.837,45.544 48.811,43.994 48.479,42.635C47.507,43.409 45.691,44.568 44.69,43.23C43.907,43.284 42.803,43.932 42.196,44.683C41.993,44.934 41.691,45.386 41.934,45.7C42.421,46.326 44.313,46.453 44.867,46.476Z" style="fill:none;"/>
    </g>
    <g transform="matrix(1.42041,0,0,1.42041,-7.02205,-7.1004)">
        <path d="M45.225,23.511C44.581,24.262 43.621,24.803 42.687,25.107C45.473,25.994 45.983,26.722 45.669,27.988C46.327,27.659 46.968,27.27 47.425,26.735C48.345,25.659 49.167,25.071 49.886,24.839C49.464,24.223 49.147,23.528 48.99,22.885C48.032,23.649 46.233,24.802 45.225,23.511Z" style="fill:none;"/>
    </g>
    <g transform="matrix(1.42041,0,0,1.42041,-7.02205,-7.1004)">
        <path d="M50.689,25.96C50.162,25.898 49.403,26.32 48.362,27.537C47.528,28.512 46.366,29.04 45.328,29.511C43.215,30.47 42.815,30.862 44.609,32.947C45.52,32.735 46.46,32.705 47.184,32.871C47.244,32.144 47.37,31.21 47.704,30.506C48.633,28.548 51.164,29.204 51.028,31.002C51.005,31.307 51.313,31.272 51.482,30.983C51.723,30.572 51.862,29.729 51.897,29.339C51.972,28.5 51.792,26.089 50.689,25.96Z" style="fill:none;"/>
    </g>
    <g transform="matrix(1.42041,0,0,1.42041,-7.02205,-7.1004)">
        <path d="M40.994,19.112C41.969,20.606 41.093,22.806 39.811,23.846C41.44,24.797 44.66,23.364 44.718,21.749C44.742,21.089 44.215,20.3 42.769,19.429C40.331,17.961 40.282,15.915 39.03,14.875C38.048,14.059 36.221,17.102 35.842,17.843C37.571,17.738 39.898,17.432 40.994,19.112Z" style="fill:none;"/>
    </g>
    <g transform="matrix(1.42041,0,0,1.42041,-7.02205,-7.1004)">
        <path d="M54.047,45.806C53.575,46.266 52.999,46.545 52.337,46.541C52.246,47.606 51.974,48.701 51.558,49.546C51.587,49.62 51.601,49.702 51.599,49.786C51.5,52.79 51.425,55.811 51.373,58.848L51.373,58.917C51.332,61.322 51.328,63.755 51.314,66.18C51.317,66.18 51.319,66.18 51.322,66.18C52.326,60.112 54.002,54.125 55.77,48.26C55.037,47.563 54.403,46.659 54.047,45.806Z" style="fill:none;"/>
    </g>
    <g transform="matrix(1.42041,0,0,1.42041,-7.02205,-7.1004)">
        <path d="M53.145,73.362C53.291,72.012 53.676,70.783 54.274,69.576C53.779,69.687 53.195,69.77 52.563,69.826C51.625,75.587 52.008,81.197 54.082,85.837C54.221,86.147 54.082,86.512 53.771,86.65C53.461,86.789 53.096,86.649 52.958,86.339C52.226,84.701 51.7,82.949 51.354,81.121C51.401,84.595 51.468,88.089 51.553,91.604C51.561,91.944 51.292,92.225 50.952,92.233C50.612,92.241 50.331,91.972 50.323,91.632C50.247,88.489 50.191,85.366 50.145,82.251C49.729,83.914 49.165,85.536 48.406,87.089C48.257,87.395 47.887,87.523 47.581,87.374C47.275,87.225 47.147,86.855 47.296,86.549C49.726,81.574 50.279,75.914 49.133,70.128C49.112,70.02 49.078,69.912 49.056,69.804C48.541,69.751 48.062,69.678 47.644,69.587C48.261,70.838 48.652,72.111 48.783,73.52C49.095,76.855 47.888,79.997 46.778,83.073C45.308,87.144 43.643,91.754 44.827,92.508C47.413,94.153 54.485,94.163 57.086,92.508C58.27,91.754 56.606,87.146 55.136,83.075C54.008,79.949 52.78,76.748 53.145,73.362Z" style="fill:none;"/>
    </g>
    <g transform="matrix(1.42041,0,0,1.42041,-7.02205,-7.1004)">
        <path d="M42.887,57.773C41.365,57.531 39.741,58.493 38.589,59.407C39.225,60.091 40.649,59.826 42.267,59.526C43.129,59.366 44.038,59.197 44.951,59.139C44.441,58.437 43.763,57.912 42.887,57.773Z" style="fill:none;"/>
    </g>
    <g transform="matrix(1.42041,0,0,1.42041,-7.02205,-7.1004)">
        <path d="M59.042,53.225C59.955,53.283 60.864,53.452 61.727,53.612C63.345,53.913 64.769,54.177 65.405,53.494C64.781,52.999 64.183,52.619 63.618,52.347C62.684,51.898 61.841,51.744 61.107,51.86C60.231,51.999 59.553,52.524 59.042,53.225Z" style="fill:none;"/>
    </g>
    <g transform="matrix(1.42041,0,0,1.42041,-7.02205,-7.1004)">
        <path d="M47.203,58.24C47.183,58.184 47.182,58.127 47.179,58.071C46.699,57.489 46.234,56.802 45.748,56.079C44.988,54.948 44.17,53.73 43.18,52.825L43.173,52.819L43.169,52.815L43.162,52.808L43.159,52.805L43.151,52.797L43.13,52.774L43.128,52.772L43.119,52.762L43.118,52.761L43.109,52.75L43.108,52.749L43.1,52.738L43.099,52.737L43.09,52.726L43.09,52.725L43.082,52.713L43.073,52.7L43.065,52.687L43.051,52.663L43.05,52.661L43.05,52.66L43.043,52.648L43.042,52.647L43.036,52.635L43.035,52.633L43.029,52.621L43.028,52.619L43.023,52.607L43.022,52.604L43.017,52.593L43.016,52.59L43.012,52.58L43.011,52.576L43.007,52.566L43.005,52.561L43.002,52.552L43,52.545L42.998,52.537L42.996,52.53L42.994,52.523L42.992,52.515L42.991,52.509L42.989,52.5L42.988,52.494C42.982,52.465 42.978,52.437 42.975,52.408L42.975,52.406C42.972,52.361 42.974,52.317 42.98,52.273L42.985,52.244L42.988,52.23L42.992,52.216L42.996,52.202L43,52.188L43.004,52.174L43.009,52.16L43.014,52.146L43.019,52.133L43.019,52.132L43.025,52.119L43.025,52.118L43.037,52.093L43.037,52.092L43.038,52.091L43.044,52.079L43.045,52.077L43.051,52.066L43.058,52.054L43.058,52.053L43.06,52.05L43.066,52.04L43.068,52.037L43.074,52.028L43.076,52.024L43.082,52.015L43.085,52.011L43.091,52.003L43.094,51.998L43.099,51.991L43.103,51.986L43.108,51.98L43.113,51.974L43.118,51.968L43.124,51.962C43.141,51.942 43.16,51.923 43.179,51.906L43.18,51.905C43.191,51.895 43.202,51.886 43.214,51.877L43.214,51.876C43.226,51.867 43.238,51.858 43.251,51.85L43.275,51.835L43.276,51.834L43.289,51.827L43.29,51.827L43.303,51.82L43.304,51.82L43.316,51.814L43.317,51.813L43.329,51.807L43.331,51.806L43.343,51.801L43.345,51.8L43.356,51.795L43.359,51.794L43.37,51.79L43.374,51.788L43.384,51.784L43.389,51.782L43.398,51.779C43.858,51.624 44.301,51.529 44.737,51.462C44.538,50.902 44.336,50.338 44.157,49.806C43.899,49.039 43.66,48.295 43.445,47.579C43.13,47.53 42.84,47.471 42.585,47.399C42.229,48.195 41.808,49.224 41.663,50.608C41.618,51.037 41.542,51.442 41.441,51.821C41.453,51.833 41.469,51.839 41.48,51.853C44.952,56.143 47.752,60.988 49.394,66.255C49.462,66.249 49.529,66.244 49.598,66.239C49.002,63.519 48.129,60.843 47.203,58.24Z" style="fill:none;"/>
    </g>
    <g transform="matrix(1.42041,0,0,1.42041,-7.02205,-7.1004)">
        <path d="M48.744,68.496C48.67,68.202 48.611,67.908 48.528,67.614C48.215,67.662 47.92,67.716 47.664,67.781C46.418,68.097 46.449,67.992 47.664,68.3C47.977,68.379 48.348,68.443 48.744,68.496Z" style="fill:none;"/>
    </g>
    <g transform="matrix(1.42041,0,0,1.42041,-7.02205,-7.1004)">
        <path d="M61.625,45.139C61.455,44.909 61.337,44.683 61.251,44.459C61.133,44.893 61.037,45.372 60.981,45.904C60.692,48.666 59.217,50.585 56.809,49.097C55.57,53.22 54.384,57.402 53.454,61.63C55.494,55.931 58.64,50.457 62.564,45.941C62.247,45.804 61.932,45.555 61.625,45.139Z" style="fill:none;"/>
    </g>
    <g transform="matrix(1.42041,0,0,1.42041,-7.02205,-7.1004)">
        <path d="M54.087,68.329C55.446,68.013 55.482,68.081 54.085,67.753C53.767,67.678 53.395,67.619 53,67.569C52.928,67.893 52.858,68.217 52.794,68.541C53.273,68.487 53.713,68.417 54.087,68.329Z" style="fill:none;"/>
    </g>
    <g transform="matrix(1.42041,0,0,1.42041,-7.02205,-7.1004)">
        <path d="M79.19,33.942C77.672,31.533 78.548,29.686 77.897,28.194C77.387,27.024 74.386,28.92 73.713,29.411C73.99,29.53 74.32,29.668 74.713,29.829C79.096,31.624 78.418,35.719 74.559,36.557C75.932,38.671 82.143,38.624 79.19,33.942Z" style="fill:none;"/>
    </g>
    <g transform="matrix(1.42041,0,0,1.42041,-7.02205,-7.1004)">
        <path d="M75.469,39.623C75.146,40.685 73.409,41.358 72.559,40.134C72.356,39.842 70.31,41.972 69.774,42.383C69.344,43.062 69.512,44.799 70.088,46.113C71.133,48.497 72.414,47.348 73.471,45.702C74.409,44.241 75.431,43.415 76.204,42.791C77.818,41.49 77.064,41.113 75.469,39.623Z" style="fill:none;"/>
    </g>
    <g transform="matrix(1.42041,0,0,1.42041,-7.02205,-7.1004)">
        <path d="M64.876,40.694C64.626,39.742 64.615,38.664 64.819,37.803C63.814,38.007 62.07,38.427 61.861,36.97C61.224,37.625 60.356,38.099 59.492,38.381C62.312,39.278 62.801,40.013 62.463,41.307C62.211,42.272 61.936,43.489 62.614,44.407C63.013,44.948 63.517,44.775 63.998,44.347C64.028,44.316 64.055,44.282 64.084,44.251C64.1,44.234 64.122,44.227 64.14,44.212C64.746,43.606 65.296,42.655 65.519,42.291L65.563,42.22L65.548,42.199C65.245,41.77 65.021,41.247 64.876,40.694Z" style="fill:none;"/>
    </g>
    <g transform="matrix(1.42041,0,0,1.42041,-7.02205,-7.1004)">
        <path d="M73.573,39.43C73.803,39.761 74.409,39.347 74.254,38.716C74.063,37.938 73.452,37.095 73.001,36.469C72.952,36.401 72.908,36.34 72.865,36.279L72.863,36.276C72.722,36.094 72.688,35.84 72.799,35.62C72.952,35.316 73.323,35.194 73.627,35.348C74.699,35.888 79.166,32.983 74.245,30.968C70.392,29.39 70.789,28.732 71.264,27.945C71.473,27.597 70.845,27.217 70.334,27.614C69.71,28.1 69.118,29.122 68.796,29.677C68.481,30.22 67.796,30.549 67.545,29.786C67.348,29.189 65.966,28.614 64.61,28.494C62.19,28.279 61.711,29.541 62.582,31.621C63.391,33.55 63.231,35.035 63.124,36.041C62.973,37.445 64.913,36.534 65.785,36.315C66.437,36.152 66.836,37.007 66.305,37.407C65.44,38.172 65.713,44.671 69.701,40.797C70.881,39.648 72.525,37.922 73.573,39.43ZM67.702,36.856C66.225,36.314 65.108,35.17 64.975,33.555C64.82,31.67 66.413,30.644 68.113,30.504C68.843,30.444 69.574,30.595 70.177,31.048C71.984,32.405 72.088,34.319 69.78,34.935C69.167,35.099 68.476,35.036 67.974,34.8C66.664,34.182 66.98,32.916 67.961,32.095C68.222,31.877 68.611,31.911 68.83,32.172C69.048,32.433 69.014,32.822 68.753,33.041C67.913,33.744 68.663,33.957 69.462,33.743C70.856,33.371 70.209,32.61 69.439,32.032C69.102,31.779 68.665,31.697 68.214,31.734C67.209,31.817 66.11,32.31 66.204,33.454C66.298,34.591 67.099,35.321 68.125,35.698C68.919,35.99 70.035,36.081 70.651,35.382C70.98,35.01 71.062,34.208 71.761,34.464C72.578,34.763 71.934,35.789 71.573,36.198C70.597,37.305 69.003,37.333 67.702,36.856Z" style="fill:none;"/>
    </g>
    <g transform="matrix(1.42041,0,0,1.42041,-7.02205,-7.1004)">
        <path d="M37.708,44.829C38.065,45.022 38.416,44.378 37.996,43.885C37.467,43.266 36.539,42.794 35.866,42.443L35.867,42.442L35.666,42.337L35.664,42.336L35.661,42.335C35.45,42.237 35.303,42.023 35.303,41.775C35.303,41.434 35.579,41.157 35.921,41.157C36.952,41.157 38.135,38.806 37.45,37.755C37.087,37.199 36.201,36.838 34.502,36.97C30.353,37.293 30.411,36.526 30.481,35.61C30.512,35.206 29.78,35.147 29.502,35.732C29.162,36.449 29.093,37.627 29.055,38.266C29.015,38.936 28.491,39.46 27.975,38.913C27.512,38.483 26.035,38.592 24.782,39.09C22.528,39.985 22.668,41.334 24.377,42.795C27.541,45.5 26.958,46.002 26.26,46.601C25.96,46.859 26.427,47.424 27.041,47.204C27.788,46.937 28.669,46.153 29.147,45.728C29.903,45.053 30.589,45.683 30.31,46.276C29.897,47.242 31.41,49.319 32.361,49.82C33.714,50.532 34.439,49.013 34.82,47.946C36.223,44.024 36.899,44.39 37.708,44.829ZM34.471,42.841C34.096,44.268 32.681,45.012 31.306,45.17C29.743,45.35 28.24,44.841 27.388,43.447C26.405,41.838 27.353,40.209 28.819,39.312C29.908,38.646 31.34,38.699 32.405,39.409L32.405,39.41L32.408,39.412C33.169,39.92 33.408,40.724 33.031,41.558C32.622,42.463 31.625,43.184 30.625,43.21C29.987,43.227 29.403,42.928 29.21,42.287C29.096,41.908 29.132,41.415 29.398,40.802C29.532,40.489 29.896,40.344 30.209,40.479C30.522,40.613 30.667,40.976 30.532,41.29C30.424,41.54 30.174,41.992 30.596,41.981C31.119,41.968 31.695,41.523 31.907,41.052C32.305,40.171 30.353,39.82 29.461,40.365C28.606,40.888 27.845,41.832 28.44,42.806C29.039,43.786 30.081,44.07 31.166,43.945C32.009,43.848 33.041,43.43 33.279,42.528C33.405,42.047 33.12,41.293 33.859,41.208C34.722,41.109 34.609,42.313 34.471,42.841Z" style="fill:none;"/>
    </g>
    <g transform="matrix(1.42041,0,0,1.42041,-7.02205,-7.1004)">
        <path d="M26.088,25.758C23.878,23.868 23.582,21.54 26.401,20.167C25.985,19.728 23.162,17.915 22.614,19.113C21.793,20.91 25.25,25.001 23.934,27.166C23.567,27.77 23.835,28.583 24.688,28.511C26.026,28.397 27.007,27.461 27.822,27.331C27.587,27.074 27.09,26.615 26.088,25.758Z" style="fill:none;"/>
    </g>
    <g transform="matrix(1.42041,0,0,1.42041,-7.02205,-7.1004)">
        <path d="M25.931,32.89C26.73,32.518 27.554,32.083 28.109,31.435C28.399,31.096 28.679,30.806 28.949,30.559C28.543,30.526 28.177,30.346 27.886,29.957C26.727,30.038 23.524,32.127 25.931,32.89Z" style="fill:none;"/>
    </g>
    <g transform="matrix(1.42041,0,0,1.42041,-7.02205,-7.1004)">
        <path d="M27.866,37.57C27.926,36.843 28.052,35.91 28.386,35.205C29.314,33.247 31.846,33.903 31.71,35.701C31.674,36.171 32.235,35.278 32.261,35.232C32.655,34.545 32.711,33.15 32.407,32.024C32.275,31.537 31.957,30.727 31.371,30.659C30.844,30.597 30.085,31.019 29.044,32.236C27.218,34.37 25.848,33.824 24.446,35.067C23.972,35.487 24.017,36.165 25.29,37.646C26.201,37.435 27.142,37.405 27.866,37.57Z" style="fill:none;"/>
    </g>
    <g transform="matrix(1.42041,0,0,1.42041,-7.02205,-7.1004)">
        <path d="M30.379,19.598C30.439,18.872 30.565,17.938 30.899,17.233C31.827,15.275 34.359,15.931 34.222,17.729C34.218,17.787 34.214,17.841 34.422,17.867C35.775,15.276 35.112,10.107 31.557,14.263C30.126,15.936 28.202,15.992 26.959,17.094C26.485,17.514 26.53,18.192 27.804,19.673C28.714,19.463 29.654,19.432 30.379,19.598Z" style="fill:none;"/>
    </g>
    <g transform="matrix(1.42041,0,0,1.42041,-7.02205,-7.1004)">
        <path d="M32.992,17.637C33.023,17.233 32.29,17.174 32.013,17.759C31.673,18.476 31.604,19.653 31.566,20.293C31.526,20.963 31.001,21.487 30.486,20.94C30.023,20.51 28.547,20.619 27.293,21.117C25.039,22.012 25.179,23.361 26.888,24.822C30.052,27.527 29.468,28.029 28.771,28.628C28.471,28.885 28.937,29.451 29.553,29.231C30.3,28.964 31.181,28.18 31.659,27.755C31.913,27.53 32.071,27.386 32.382,27.439L32.411,27.445L32.412,27.445L32.425,27.448L32.427,27.448C32.788,27.546 32.985,27.949 32.823,28.302C32.577,28.877 33.121,30.149 33.943,31.079C37.631,35.256 37.188,25.21 40.221,26.855C40.576,27.048 40.93,26.404 40.509,25.911C40.005,25.322 39.047,24.817 38.379,24.469L38.379,24.468C37.463,23.99 37.796,23.182 38.432,23.182C39.463,23.182 40.647,20.831 39.961,19.78C38.6,17.697 32.762,20.651 32.992,17.637ZM34.92,21.438C35.681,21.946 35.92,22.75 35.544,23.584C35.048,24.682 33.453,25.686 32.315,25.051C32.035,24.895 31.825,24.652 31.723,24.313C31.609,23.934 31.645,23.441 31.91,22.827C32.045,22.514 32.407,22.369 32.721,22.504C33.034,22.638 33.179,23.001 33.044,23.315C32.906,23.634 32.683,24.089 33.204,24.005C33.687,23.927 34.216,23.526 34.419,23.077C34.817,22.195 32.864,21.845 31.973,22.39C31.118,22.913 30.357,23.857 30.952,24.831C31.551,25.811 32.593,26.095 33.679,25.97C34.815,25.839 35.978,25.206 35.829,23.916C35.791,23.578 36.034,23.272 36.372,23.233C36.71,23.194 37.016,23.437 37.055,23.776C37.284,25.765 35.669,26.983 33.819,27.195C32.256,27.375 30.753,26.866 29.901,25.472C28.259,22.785 32.108,19.561 34.919,21.434L34.92,21.438Z" style="fill:none;"/>
    </g>
    <g transform="matrix(1.42041,0,0,1.42041,-7.02205,-7.1004)">
        <path d="M29.162,47.335C28.657,47.737 28.051,48.154 27.455,48.367C26.65,48.654 25.892,48.624 25.373,47.93C24.459,47.993 21.973,49.572 22.618,50.4C23.795,51.916 27.045,49.879 29.225,53.208C31.169,56.174 31.664,52.618 31.8,51.004L31.807,50.921L31.786,50.91C30.521,50.244 29.494,48.694 29.162,47.335Z" style="fill:none;"/>
    </g>
    <g transform="matrix(1.42041,0,0,1.42041,-7.02205,-7.1004)">
        <path d="M41.454,46.905C40.83,46.489 40.497,45.864 40.642,45.101C40.674,44.933 40.729,44.765 40.804,44.6C40.376,44.429 39.931,44.286 39.489,44.154C39.674,45.247 38.426,46.623 37.119,45.915C36.808,45.747 35.937,48.573 35.641,49.181C35.568,49.981 36.497,51.451 37.6,52.364C39.605,54.022 40.234,52.426 40.438,50.478C40.603,48.906 41.064,47.776 41.454,46.905Z" style="fill:none;"/>
    </g>
    <g transform="matrix(1.42041,0,0,1.42041,-7.02205,-7.1004)">
        <path d="M23.576,43.731C21.366,41.842 21.07,39.513 23.889,38.14C23.332,37.552 22.323,36.974 21.408,36.776L21.389,36.772C20.974,36.684 20.317,36.615 20.102,37.086C19.281,38.882 22.738,42.974 21.422,45.139C21.055,45.743 21.323,46.556 22.176,46.484C23.142,46.402 24.401,45.744 25.291,45.284C25.056,45.027 24.578,44.587 23.576,43.731Z" style="fill:none;"/>
    </g>
    <g transform="matrix(1.42041,0,0,1.42041,-7.02205,-7.1004)">
        <path d="M80.232,33.285C78.904,31.179 79.732,29.323 79.025,27.701C78.587,26.695 77.676,26.358 75.391,27.129C75.768,26.266 76.037,25.177 75.838,24.242C75.334,21.878 72.668,22.459 71.023,23.148C69.315,23.863 67.428,23.125 65.804,23.556C65.079,23.748 64.553,24.134 64.34,24.908C63.818,24.238 63.081,23.551 62.254,23.315C62.495,22.747 62.822,22.143 62.975,21.556C63.313,20.262 62.824,19.527 60.004,18.63C63.876,17.367 64.477,14.156 60.723,11.896C58.588,10.61 58.495,8.583 57.134,7.452C56.29,6.751 55.326,6.859 53.633,8.574C53.404,4.293 50.513,3.976 47.939,6.985C46.478,8.693 42.254,9.053 42.763,11.566C40.841,10.647 38.405,10.739 38.611,13.537C38.008,13.619 37.28,14.075 36.317,15.051C36.088,10.77 33.197,10.453 30.623,13.462C29.425,14.862 27.405,15.056 26.145,16.173C25.583,16.671 25.286,17.255 25.447,18.046C24.206,17.452 22.215,17.03 21.497,18.602C20.426,20.945 23.728,25.143 22.884,26.53C21.988,28.005 22.779,29.913 24.791,29.742C25.059,29.719 25.339,29.664 25.618,29.588C24.348,30.431 22.874,32.283 24.533,33.55C24.195,33.728 23.889,33.919 23.633,34.146C23.07,34.645 22.774,35.228 22.935,36.019C21.685,35.419 19.701,35.008 18.985,36.574C17.914,38.917 21.216,43.114 20.372,44.502C19.476,45.978 20.267,47.885 22.279,47.714C22.549,47.691 22.83,47.635 23.111,47.559C22.009,48.288 20.611,49.825 21.646,51.158C23.265,53.243 26.462,51.238 28.195,53.884C30.872,57.971 32.747,54.441 33.022,51.242C33.684,51.246 34.26,50.967 34.732,50.507C35.148,51.501 35.932,52.583 36.817,53.315C38.704,54.877 40.099,54.472 40.909,53.129C41.818,54.281 42.671,55.448 43.444,56.632C43.326,56.602 43.205,56.578 43.083,56.558C41,56.227 38.915,57.5 37.391,58.8C37.173,58.986 37.117,59.292 37.238,59.538C38.075,61.557 40.121,61.177 42.491,60.737C43.509,60.548 44.597,60.346 45.624,60.35C46.668,62.353 47.494,64.377 48.143,66.401C47.863,66.449 47.6,66.503 47.362,66.563C46.191,66.86 45.467,67.376 45.467,68.041C45.467,68.418 46.07,69.297 46.249,69.622C46.959,70.914 47.404,72.202 47.537,73.631C47.826,76.729 46.637,79.778 45.601,82.648C43.971,87.16 42.126,92.269 44.156,93.561C47.162,95.473 54.74,95.483 57.761,93.561C59.791,92.269 57.946,87.161 56.317,82.649C55.265,79.737 54.056,76.637 54.395,73.493C54.569,71.881 55.14,70.446 56.044,68.975C56.271,68.606 56.408,68.466 56.408,68.039C56.408,66.993 54.793,66.536 53.293,66.336C53.342,66.139 53.388,65.942 53.44,65.745C54.469,61.875 56.049,58.027 58.071,54.442C59.185,54.39 60.388,54.613 61.508,54.821C63.879,55.261 65.925,55.641 66.761,53.622C66.882,53.376 66.826,53.07 66.608,52.884C65.758,52.159 64.936,51.612 64.151,51.234C62.984,50.673 61.896,50.486 60.916,50.641C60.726,50.671 60.541,50.714 60.361,50.769C61.76,48.735 63.306,46.828 64.975,45.102C64.993,45.084 64.999,45.06 65.015,45.04C65.619,44.418 66.14,43.636 66.503,43.046C67.093,43.349 67.733,43.359 68.362,43.159C68.287,44.233 68.502,45.55 68.963,46.602C70.422,49.931 72.865,48.931 74.513,46.365C75.344,45.07 76.276,44.318 76.981,43.749C79.238,41.926 78.663,41.023 76.569,38.974C80.753,39.613 82.504,36.89 80.232,33.285ZM66.117,24.748C67.725,24.321 69.472,25.134 71.496,24.287C72.275,23.96 74.342,23.136 74.632,24.498C75.192,27.128 71.832,29.389 72.32,28.58C73.25,27.036 71.285,25.312 69.576,26.642C68.96,27.122 68.428,27.898 68.048,28.519C67.475,28.045 66.622,27.649 65.713,27.428C65.241,25.535 65.506,24.91 66.117,24.748ZM64.23,27.239C61.102,27.208 60.32,29.415 61.443,32.093C61.539,32.323 61.62,32.547 61.686,32.763C61.31,32.389 60.824,32.015 60.211,31.646C59.379,31.145 58.8,30.458 58.347,29.777C58.85,29.893 59.346,29.862 59.807,29.632C61.522,28.775 61.333,26.13 61.828,24.478C62.832,24.649 63.947,26.338 64.23,27.239ZM39.556,41.992C38.624,42.261 38.145,42.314 37.298,41.819C38.58,40.778 39.456,38.579 38.481,37.084C37.887,36.173 36.637,35.566 34.409,35.739C33.986,35.772 33.629,35.797 33.328,35.815C33.742,35.008 33.9,33.755 33.766,32.595C37.847,35.698 39.1,27.654 39.631,27.942C40.941,28.652 42.19,27.27 42,26.175C44.179,26.814 44.607,27.182 44.466,27.724C43.926,29.787 41.815,29.179 42.25,31.318C41.009,30.723 39.018,30.302 38.299,31.873C37.948,32.642 37.999,33.878 38.746,35.746C40.097,39.124 39.892,39.461 39.686,39.8C39.277,40.476 39.262,41.268 39.556,41.992ZM54.981,37.637L54.983,37.638L55.183,37.743L55.183,37.744C55.851,38.091 56.786,38.569 57.313,39.186C57.563,39.479 57.639,39.807 57.265,40.127C57.17,40.208 57.095,40.167 57.026,40.13C55.047,39.057 54.456,42.714 53.826,43.998C51.807,47.632 49.239,42.489 49.629,41.577C49.9,41.001 49.259,40.324 48.465,41.028C47.97,41.468 46.675,42.632 45.992,42.548C45.58,42.497 45.341,42.103 45.577,41.9C46.275,41.301 46.858,40.799 43.694,38.094C41.985,36.633 41.845,35.284 44.099,34.389C45.355,33.89 46.834,33.782 47.294,34.215C47.813,34.76 48.333,34.232 48.372,33.565C48.409,32.926 48.479,31.748 48.818,31.031C49.096,30.445 49.828,30.506 49.797,30.909C49.727,31.826 49.669,32.592 53.818,32.269C55.687,32.124 57.708,32.594 56.758,34.896C56.408,35.745 55.759,36.456 55.236,36.456C54.895,36.456 54.618,36.733 54.618,37.074C54.619,37.324 54.767,37.539 54.981,37.637ZM51.897,29.339C51.862,29.729 51.723,30.572 51.482,30.983C51.313,31.272 51.004,31.307 51.028,31.002C51.164,29.205 48.633,28.548 47.704,30.506C47.37,31.21 47.244,32.144 47.184,32.871C46.46,32.705 45.519,32.736 44.609,32.947C42.815,30.862 43.215,30.47 45.328,29.511C46.367,29.039 47.528,28.512 48.362,27.537C49.403,26.32 50.162,25.899 50.689,25.96C51.792,26.089 51.972,28.5 51.897,29.339ZM47.426,26.735C46.968,27.27 46.328,27.659 45.67,27.988C45.984,26.722 45.474,25.994 42.688,25.107C43.621,24.802 44.582,24.262 45.226,23.511C46.234,24.802 48.033,23.649 48.992,22.885C49.149,23.528 49.466,24.223 49.888,24.839C49.168,25.072 48.346,25.66 47.426,26.735ZM39.419,32.386C39.634,31.916 40.291,31.984 40.706,32.072L40.725,32.076C41.639,32.274 42.649,32.852 43.206,33.44C40.387,34.813 40.684,37.142 42.893,39.031C43.716,39.735 44.531,40.245 44.601,40.647C44.711,41.279 43.495,41.614 41.493,41.784C40.64,41.857 40.372,41.044 40.739,40.44C41.105,39.837 41.469,39.238 39.89,35.29C39.285,33.774 39.199,32.867 39.419,32.386ZM40.583,42.935C41.165,43.108 41.849,43.016 42.426,42.858C42.103,43.072 41.802,43.314 41.543,43.572C41.103,43.38 40.649,43.227 40.192,43.081C40.323,43.036 40.453,42.988 40.583,42.935ZM42.197,44.683C42.803,43.932 43.908,43.284 44.691,43.23C45.692,44.569 47.508,43.409 48.48,42.635C48.812,43.994 49.838,45.544 51.104,46.21L51.125,46.221L51.118,46.304C50.982,47.917 50.487,51.475 48.543,48.508C47.926,47.566 47.277,46.576 44.868,46.476C44.314,46.453 42.422,46.326 41.936,45.7C41.692,45.386 41.995,44.934 42.197,44.683ZM44.819,47.706C46.59,47.779 47.061,48.498 47.51,49.183C48.605,50.854 49.562,51.239 50.334,50.906C50.3,52.02 50.265,53.133 50.238,54.252C49.803,53.421 49.258,52.769 48.618,52.295C47.862,51.734 46.984,51.44 46.017,51.386C45.784,50.735 45.552,50.081 45.326,49.41C45.137,48.848 44.959,48.275 44.782,47.703C44.795,47.704 44.806,47.706 44.819,47.706ZM45.378,52.61C46.34,52.544 47.189,52.768 47.885,53.285C49.391,54.401 49.925,56.642 50.1,58.419C48.897,58.557 47.904,57.08 46.772,55.393C46.165,54.489 45.522,53.532 44.771,52.687C44.978,52.649 45.18,52.624 45.378,52.61ZM50.128,59.681C50.11,60.838 50.114,62.014 50.102,63.177C49.752,61.943 49.356,60.724 48.945,59.514C49.312,59.66 49.702,59.729 50.128,59.681ZM50.047,68.618C50.046,68.618 50.044,68.618 50.043,68.618C49.953,68.24 49.876,67.857 49.774,67.483C49.794,67.482 49.812,67.48 49.832,67.478C49.902,67.858 49.99,68.236 50.047,68.618ZM51.32,66.189C51.317,66.189 51.315,66.189 51.312,66.189C51.326,63.764 51.33,61.331 51.371,58.926L51.371,58.925L51.371,58.923L51.371,58.921L51.371,58.919L51.371,58.917L51.371,58.915L51.371,58.913L51.371,58.911L51.371,58.908L51.371,58.906L51.371,58.904L51.371,58.902L51.371,58.9L51.371,58.899L51.371,58.898L51.371,58.896L51.371,58.894L51.371,58.892L51.371,58.89L51.371,58.888L51.371,58.887L51.371,58.88L51.371,58.878L51.371,58.876L51.371,58.874L51.371,58.87L51.371,58.868L51.371,58.866L51.371,58.864L51.371,58.862L51.371,58.859L51.371,58.857L51.371,58.855L51.371,58.853L51.371,58.852L51.371,58.85L51.371,58.849C51.423,55.812 51.497,52.791 51.597,49.787C51.6,49.702 51.585,49.621 51.556,49.547C51.972,48.702 52.244,47.607 52.335,46.542C52.997,46.546 53.574,46.267 54.045,45.807C54.401,46.66 55.036,47.564 55.766,48.269C54,54.133 52.324,60.12 51.32,66.189ZM56.918,47.664C55.861,46.789 54.635,45.385 55.168,43.967C55.55,42.952 56.181,41.077 56.437,41.215C56.862,41.445 57.324,41.697 58.066,41.063C58.704,40.518 58.897,39.972 58.806,39.449C60.985,40.088 61.413,40.456 61.271,40.998C60.817,42.738 59.99,43.537 59.756,45.779C59.553,47.726 58.923,49.323 56.918,47.664ZM56.616,37.119C57.146,36.689 57.612,36.058 57.898,35.365C59.211,32.184 56.63,30.814 53.727,31.04C53.304,31.073 52.948,31.098 52.647,31.116C53.027,30.375 54.853,27.332 55.836,28.148C57.087,29.187 57.137,31.235 59.575,32.702C61.021,33.573 61.548,34.362 61.524,35.022C61.513,35.335 61.372,35.638 61.148,35.918C60.149,37.166 58.04,37.951 56.616,37.119ZM52.854,26.792C53.514,26.794 54.088,26.516 54.558,26.057C54.677,26.341 54.826,26.633 54.998,26.921C54.48,27.119 53.872,27.564 53.12,28.325C53.092,27.806 53.01,27.288 52.854,26.792ZM61.782,21.248C61.596,21.958 61.088,22.837 60.822,23.585C60.14,24.744 60.475,27.918 59.257,28.527C58.676,28.817 57.861,28.271 57.429,27.915C56.326,27.002 55.397,25.532 55.47,24.732C55.766,24.123 56.636,21.297 56.948,21.465C58.258,22.175 59.507,20.792 59.317,19.698C61.495,20.337 61.924,20.706 61.782,21.248ZM56.346,8.399C57.598,9.44 57.648,11.486 60.085,12.953C64.807,15.795 59.314,18.648 57.127,17.369C58.05,16.62 58.717,15.332 58.726,14.133C58.743,11.657 56.28,11.131 54.238,11.29C53.815,11.323 53.459,11.348 53.158,11.366C53.537,10.625 55.364,7.583 56.346,8.399ZM54.329,12.521C55.537,12.427 57.506,12.492 57.495,14.129C57.489,14.997 56.654,16.708 55.747,16.708C55.406,16.708 55.13,16.985 55.13,17.326C55.13,17.574 55.277,17.789 55.488,17.886L55.491,17.888L55.694,17.994L55.694,17.995C56.365,18.344 57.33,18.859 57.824,19.437C58.245,19.93 57.892,20.574 57.536,20.381C55.557,19.308 54.965,22.966 54.335,24.251C54.327,24.266 54.319,24.281 54.312,24.297C53.86,25.196 53.213,25.911 52.189,25.372C51.239,24.872 49.724,22.793 50.139,21.827C50.437,21.133 49.625,20.702 48.975,21.28C48.478,21.722 46.462,23.65 46.008,22.378C45.797,21.789 48.174,22.033 43.959,18.429C42.183,16.911 42.431,15.507 44.609,14.642C45.862,14.144 47.339,14.035 47.802,14.465C48.317,15.012 48.842,14.488 48.882,13.818C48.919,13.178 48.989,12.001 49.328,11.284C49.605,10.699 50.338,10.758 50.307,11.162C50.238,12.077 50.18,12.843 54.329,12.521ZM48.873,7.787C52.154,3.952 53.013,8.433 52.198,10.554C52.181,10.598 51.496,11.81 51.539,11.252C51.675,9.454 49.143,8.798 48.216,10.756C47.882,11.46 47.756,12.394 47.696,13.121C46.971,12.955 46.031,12.985 45.12,13.197C41.997,9.569 46.635,10.402 48.873,7.787ZM43.716,13.69C42.53,14.268 41.473,15.3 41.704,16.74C41.126,15.927 40.591,14.653 39.918,14.02L39.912,13.982C39.286,10.886 42.699,12.62 43.716,13.69ZM39.03,14.876C40.282,15.917 40.332,17.963 42.769,19.43C44.216,20.301 44.742,21.09 44.718,21.75C44.66,23.365 41.44,24.798 39.811,23.847C41.093,22.807 41.969,20.607 40.994,19.113C39.898,17.433 37.572,17.739 35.842,17.844C36.221,17.102 38.048,14.06 39.03,14.876ZM39.961,19.783C40.647,20.834 39.463,23.185 38.432,23.185C37.796,23.185 37.463,23.993 38.379,24.471L38.379,24.472C39.046,24.82 40.005,25.324 40.509,25.914C40.93,26.407 40.577,27.051 40.221,26.858C37.189,25.213 37.631,35.259 33.943,31.082C33.121,30.152 32.578,28.88 32.823,28.305C32.986,27.952 32.788,27.549 32.427,27.451L32.425,27.451L32.412,27.448L32.411,27.448L32.382,27.442C32.071,27.388 31.913,27.533 31.659,27.758C31.181,28.183 30.3,28.967 29.553,29.234C28.938,29.454 28.472,28.887 28.771,28.631C29.469,28.032 30.053,27.53 26.888,24.825C25.179,23.364 25.039,22.015 27.293,21.12C28.546,20.622 30.023,20.513 30.486,20.943C31.001,21.49 31.527,20.966 31.566,20.296C31.603,19.656 31.673,18.479 32.013,17.762C32.29,17.177 33.023,17.236 32.992,17.64C32.762,20.651 38.6,17.697 39.961,19.783ZM26.959,17.095C28.202,15.993 30.126,15.937 31.557,14.264C35.113,10.108 35.775,15.277 34.422,17.868C34.214,17.842 34.218,17.788 34.222,17.73C34.358,15.932 31.826,15.276 30.899,17.234C30.565,17.938 30.439,18.872 30.379,19.599C29.654,19.434 28.714,19.464 27.803,19.675C26.529,18.193 26.485,17.515 26.959,17.095ZM24.688,28.511C23.835,28.583 23.567,27.77 23.934,27.166C25.25,25.001 21.793,20.909 22.614,19.113C23.162,17.915 25.985,19.728 26.401,20.167C23.582,21.54 23.879,23.869 26.088,25.758C27.09,26.615 27.587,27.074 27.822,27.331C27.007,27.461 26.026,28.397 24.688,28.511ZM27.886,29.957C28.177,30.345 28.542,30.526 28.949,30.559C28.679,30.805 28.398,31.096 28.109,31.435C27.554,32.083 26.73,32.518 25.931,32.89C23.524,32.127 26.727,30.038 27.886,29.957ZM24.446,35.067C25.848,33.824 27.218,34.37 29.044,32.236C30.085,31.019 30.844,30.598 31.371,30.659C31.957,30.728 32.275,31.537 32.407,32.024C32.711,33.149 32.655,34.545 32.261,35.232C32.235,35.278 31.674,36.171 31.71,35.701C31.846,33.903 29.315,33.247 28.386,35.205C28.052,35.909 27.926,36.843 27.866,37.57C27.141,37.405 26.201,37.434 25.29,37.646C24.017,36.165 23.972,35.487 24.446,35.067ZM22.175,46.483C21.322,46.556 21.054,45.743 21.421,45.138C22.737,42.973 19.281,38.881 20.101,37.085C20.316,36.615 20.973,36.683 21.388,36.771L21.407,36.775C22.322,36.973 23.331,37.551 23.888,38.139C21.069,39.512 21.365,41.841 23.575,43.73C24.577,44.587 25.055,45.026 25.29,45.283C24.4,45.743 23.141,46.401 22.175,46.483ZM31.8,51.004C31.665,52.618 31.169,56.174 29.225,53.208C27.045,49.88 23.795,51.916 22.618,50.4C21.974,49.572 24.459,47.993 25.373,47.93C25.893,48.624 26.651,48.654 27.455,48.367C28.051,48.154 28.657,47.737 29.162,47.335C29.494,48.694 30.52,50.244 31.786,50.91L31.807,50.921L31.8,51.004ZM32.361,49.82C31.411,49.32 29.897,47.243 30.31,46.276C30.589,45.683 29.903,45.053 29.147,45.728C28.668,46.153 27.788,46.937 27.041,47.204C26.427,47.424 25.96,46.859 26.26,46.601C26.958,46.002 27.541,45.5 24.377,42.795C22.668,41.334 22.528,39.985 24.782,39.09C26.035,38.592 27.512,38.483 27.975,38.913C28.49,39.46 29.015,38.936 29.055,38.266C29.093,37.627 29.162,36.449 29.502,35.732C29.779,35.147 30.511,35.206 30.481,35.61C30.411,36.527 30.353,37.293 34.502,36.97C36.201,36.838 37.086,37.199 37.45,37.755C38.135,38.806 36.952,41.157 35.921,41.157C35.58,41.157 35.303,41.434 35.303,41.775C35.303,42.023 35.449,42.237 35.661,42.335L35.666,42.337L35.867,42.442L35.866,42.443C36.539,42.794 37.467,43.266 37.996,43.885C38.417,44.377 38.065,45.022 37.708,44.829C36.899,44.39 36.223,44.024 34.821,47.945C34.439,49.013 33.714,50.532 32.361,49.82ZM37.601,52.364C36.498,51.451 35.569,49.981 35.642,49.181C35.937,48.572 36.809,45.746 37.12,45.915C38.427,46.624 39.675,45.247 39.49,44.154C39.931,44.287 40.377,44.43 40.805,44.6C40.731,44.765 40.676,44.932 40.643,45.101C40.498,45.864 40.831,46.489 41.455,46.905C41.065,47.776 40.604,48.905 40.439,50.478C40.235,52.426 39.606,54.022 37.601,52.364ZM42.267,59.525C40.649,59.826 39.225,60.09 38.589,59.406C39.742,58.493 41.366,57.531 42.887,57.772C43.762,57.911 44.441,58.435 44.951,59.137C44.038,59.197 43.129,59.365 42.267,59.525ZM41.48,51.849C41.469,51.835 41.453,51.829 41.441,51.817C41.542,51.438 41.619,51.033 41.663,50.604C41.808,49.22 42.229,48.191 42.585,47.395C42.84,47.466 43.13,47.525 43.445,47.575C43.66,48.292 43.899,49.036 44.157,49.802C44.336,50.333 44.538,50.898 44.737,51.458C44.302,51.525 43.858,51.62 43.398,51.775L43.389,51.778L43.384,51.78L43.374,51.784L43.37,51.786L43.359,51.79L43.356,51.791L43.345,51.796L43.343,51.797L43.331,51.802L43.329,51.803L43.317,51.809L43.316,51.81L43.304,51.816L43.303,51.816L43.29,51.823L43.289,51.823L43.276,51.83L43.275,51.831L43.251,51.846C43.238,51.854 43.226,51.863 43.214,51.872L43.214,51.873C43.202,51.882 43.191,51.891 43.18,51.901L43.179,51.902C43.159,51.92 43.141,51.939 43.124,51.958L43.118,51.964L43.113,51.97L43.108,51.976L43.103,51.982L43.099,51.987L43.094,51.994L43.091,51.999L43.085,52.007L43.082,52.011L43.076,52.02L43.074,52.024L43.068,52.033L43.066,52.036L43.06,52.046L43.058,52.049L43.058,52.05L43.051,52.062L43.045,52.073L43.044,52.075L43.038,52.087L43.037,52.088L43.037,52.089L43.025,52.114L43.025,52.115L43.019,52.128L43.019,52.129L43.014,52.142L43.009,52.156L43.004,52.17L43,52.184L42.994,52.2L42.99,52.214L42.986,52.228L42.983,52.242L42.978,52.271C42.972,52.315 42.97,52.359 42.973,52.404L42.973,52.406C42.975,52.434 42.979,52.463 42.986,52.492L42.987,52.498L42.989,52.507L42.99,52.513L42.992,52.521L42.996,52.535L43,52.545L43.005,52.56L43.011,52.575L43.012,52.579L43.017,52.592L43.022,52.603L43.023,52.606L43.028,52.618L43.042,52.646L43.043,52.647L43.05,52.659L43.051,52.662L43.065,52.686L43.073,52.699L43.089,52.723L43.089,52.724L43.098,52.735L43.099,52.736L43.118,52.759L43.13,52.772L43.151,52.795L43.173,52.817L43.18,52.823C44.17,53.728 44.988,54.946 45.748,56.077C46.234,56.8 46.699,57.488 47.179,58.069C47.182,58.125 47.183,58.182 47.203,58.238C48.129,60.841 49.002,63.517 49.598,66.233C49.529,66.238 49.462,66.244 49.394,66.249C47.752,60.984 44.952,56.139 41.48,51.849ZM47.664,67.781C47.92,67.716 48.216,67.662 48.528,67.614C48.611,67.909 48.67,68.202 48.744,68.496C48.348,68.442 47.977,68.379 47.664,68.3C46.449,67.992 46.418,68.097 47.664,67.781ZM55.136,83.073C56.606,87.143 58.27,91.752 57.086,92.506C54.485,94.161 47.413,94.151 44.827,92.506C43.643,91.752 45.308,87.142 46.778,83.071C47.888,79.995 49.094,76.853 48.783,73.518C48.651,72.109 48.261,70.836 47.644,69.585C48.062,69.676 48.54,69.749 49.056,69.802C49.078,69.91 49.112,70.019 49.133,70.126C50.279,75.913 49.726,81.573 47.296,86.547C47.147,86.853 47.275,87.223 47.581,87.372C47.887,87.521 48.257,87.394 48.406,87.087C49.165,85.533 49.729,83.912 50.145,82.249C50.191,85.364 50.247,88.487 50.323,91.63C50.331,91.97 50.613,92.239 50.952,92.231C51.292,92.223 51.561,91.941 51.553,91.602C51.468,88.088 51.401,84.593 51.354,81.119C51.701,82.947 52.226,84.699 52.958,86.337C53.096,86.647 53.461,86.787 53.771,86.648C54.082,86.51 54.221,86.146 54.082,85.835C52.008,81.195 51.625,75.586 52.563,69.824C53.196,69.769 53.779,69.685 54.274,69.574C53.676,70.781 53.29,72.01 53.145,73.36C52.78,76.748 54.008,79.949 55.136,83.073ZM54.085,67.752C55.482,68.08 55.446,68.012 54.087,68.328C53.713,68.416 53.273,68.487 52.794,68.539C52.857,68.215 52.928,67.891 53,67.567C53.395,67.618 53.767,67.677 54.085,67.752ZM61.107,51.86C61.84,51.744 62.684,51.898 63.618,52.347C64.184,52.619 64.781,53 65.405,53.494C64.769,54.178 63.345,53.913 61.727,53.612C60.865,53.452 59.955,53.283 59.042,53.225C59.553,52.524 60.231,51.999 61.107,51.86ZM53.454,61.63C54.385,57.402 55.571,53.22 56.809,49.097C59.217,50.585 60.693,48.666 60.981,45.904C61.037,45.372 61.133,44.893 61.251,44.459C61.336,44.683 61.455,44.909 61.625,45.139C61.932,45.554 62.247,45.803 62.563,45.94C58.639,50.457 55.494,55.931 53.454,61.63ZM65.521,42.29C65.297,42.655 64.748,43.605 64.142,44.211C64.124,44.226 64.102,44.233 64.086,44.25C64.056,44.281 64.029,44.315 64,44.346C63.519,44.774 63.015,44.946 62.616,44.406C61.937,43.488 62.213,42.271 62.465,41.306C62.803,40.012 62.315,39.277 59.494,38.38C60.358,38.098 61.226,37.624 61.863,36.969C62.072,38.426 63.816,38.007 64.821,37.802C64.617,38.664 64.628,39.741 64.878,40.693C65.023,41.247 65.247,41.77 65.552,42.197L65.567,42.218L65.521,42.29ZM66.303,37.406C66.834,37.007 66.435,36.151 65.783,36.314C64.911,36.533 62.971,37.443 63.122,36.04C63.23,35.034 63.389,33.548 62.58,31.62C61.708,29.54 62.187,28.279 64.608,28.493C65.964,28.613 67.346,29.188 67.543,29.785C67.794,30.548 68.479,30.219 68.794,29.676C69.115,29.121 69.707,28.099 70.332,27.613C70.843,27.215 71.472,27.596 71.262,27.944C70.788,28.731 70.391,29.39 74.243,30.967C79.164,32.982 74.697,35.887 73.625,35.347C73.321,35.194 72.951,35.316 72.797,35.619C72.686,35.839 72.72,36.093 72.861,36.275L72.863,36.278C72.905,36.338 72.95,36.4 72.999,36.468C73.45,37.094 74.062,37.937 74.252,38.715C74.407,39.346 73.801,39.76 73.571,39.429C72.523,37.921 70.879,39.647 69.697,40.795C65.711,44.671 65.439,38.172 66.303,37.406ZM76.206,42.792C75.433,43.416 74.41,44.241 73.473,45.703C72.416,47.349 71.135,48.498 70.09,46.114C69.514,44.8 69.346,43.063 69.776,42.384C70.312,41.973 72.358,39.843 72.561,40.135C73.411,41.359 75.147,40.686 75.471,39.624C77.064,41.113 77.818,41.49 76.206,42.792ZM74.559,36.556C78.418,35.718 79.095,31.623 74.713,29.828C74.321,29.667 73.991,29.529 73.713,29.41C74.385,28.919 77.387,27.023 77.897,28.193C78.548,29.685 77.672,31.532 79.19,33.941C82.143,38.624 75.932,38.671 74.559,36.556Z" style="fill-rule:nonzero;"/>
    </g>
    <g transform="matrix(1.42041,0,0,1.42041,-7.02205,-7.1004)">
        <path d="M33.859,41.207C33.12,41.291 33.405,42.046 33.279,42.527C33.041,43.429 32.009,43.847 31.166,43.944C30.081,44.069 29.039,43.785 28.44,42.805C27.845,41.831 28.606,40.886 29.461,40.364C30.353,39.819 32.305,40.169 31.907,41.051C31.695,41.521 31.119,41.966 30.596,41.98C30.174,41.991 30.424,41.539 30.532,41.289C30.667,40.976 30.522,40.613 30.209,40.478C29.896,40.343 29.533,40.488 29.398,40.801C29.133,41.414 29.096,41.908 29.21,42.286C29.403,42.927 29.986,43.225 30.625,43.209C31.626,43.183 32.622,42.462 33.031,41.557C33.407,40.723 33.169,39.919 32.408,39.411L32.405,39.409L32.405,39.408C31.34,38.698 29.908,38.646 28.819,39.311C27.353,40.207 26.405,41.837 27.388,43.446C28.24,44.84 29.743,45.349 31.306,45.169C32.681,45.011 34.095,44.267 34.471,42.84C34.609,42.313 34.722,41.109 33.859,41.207Z" style="fill-rule:nonzero;"/>
    </g>
    <g transform="matrix(1.42041,0,0,1.42041,-7.02205,-7.1004)">
        <path d="M53.176,36.508C52.437,36.592 52.722,37.347 52.596,37.828C52.358,38.73 51.326,39.148 50.483,39.245C49.398,39.37 48.356,39.085 47.757,38.105C47.162,37.131 47.924,36.186 48.778,35.664C49.466,35.243 50.369,35.288 51.042,35.736C51.184,35.831 51.258,35.927 51.28,36.018C51.351,36.316 50.998,36.719 50.797,36.898C50.535,37.131 50.194,37.272 49.913,37.279C49.491,37.289 49.741,36.839 49.849,36.588C49.984,36.275 49.839,35.912 49.526,35.777C49.213,35.642 48.85,35.787 48.715,36.1C48.45,36.713 48.413,37.206 48.527,37.585C48.942,38.964 50.768,38.573 51.617,37.818C52.192,37.306 52.671,36.528 52.481,35.732C52.092,34.101 49.493,33.781 48.136,34.611C46.67,35.507 45.721,37.137 46.704,38.746C47.556,40.14 49.059,40.649 50.622,40.469C51.997,40.311 53.411,39.567 53.787,38.14C53.927,37.613 54.04,36.409 53.176,36.508Z" style="fill-rule:nonzero;"/>
    </g>
    <g transform="matrix(1.42041,0,0,1.42041,-7.02205,-7.1004)">
        <path d="M71.763,34.464C71.064,34.208 70.982,35.011 70.653,35.382C70.037,36.08 68.921,35.989 68.127,35.698C67.101,35.321 66.3,34.591 66.206,33.454C66.112,32.311 67.21,31.817 68.216,31.734C68.667,31.697 69.103,31.779 69.441,32.032C70.211,32.61 70.858,33.371 69.464,33.743C68.665,33.956 67.915,33.744 68.755,33.041C69.016,32.822 69.051,32.433 68.832,32.172C68.613,31.911 68.225,31.876 67.963,32.095C66.982,32.916 66.666,34.182 67.976,34.8C68.478,35.036 69.169,35.099 69.782,34.935C72.09,34.319 71.986,32.405 70.179,31.048C69.576,30.595 68.845,30.444 68.115,30.504C66.415,30.644 64.822,31.67 64.977,33.555C65.11,35.169 66.227,36.314 67.704,36.856C69.005,37.333 70.598,37.306 71.576,36.198C71.936,35.789 72.58,34.764 71.763,34.464Z" style="fill-rule:nonzero;"/>
    </g>
    <g transform="matrix(1.42041,0,0,1.42041,-7.02205,-7.1004)">
        <path d="M47.216,18.997C48.068,20.391 49.571,20.9 51.134,20.72C52.509,20.562 53.924,19.818 54.299,18.391C54.437,17.863 54.55,16.659 53.687,16.758C52.948,16.842 53.233,17.597 53.107,18.078C52.87,18.98 51.837,19.398 50.994,19.495C49.913,19.619 48.866,19.335 48.267,18.356C47.466,17.045 49.287,15.41 50.517,15.631C50.987,15.715 52.038,15.929 51.734,16.601C51.521,17.071 50.946,17.516 50.423,17.53C50,17.541 50.251,17.089 50.359,16.839C50.493,16.526 50.349,16.163 50.035,16.028C49.722,15.893 49.359,16.038 49.224,16.351C48.959,16.964 48.923,17.458 49.037,17.837C49.23,18.478 49.813,18.776 50.452,18.76C51.452,18.734 52.45,18.013 52.858,17.108C53.574,15.523 52.12,14.669 50.734,14.42C48.491,14.016 45.827,16.724 47.216,18.997Z" style="fill-rule:nonzero;"/>
    </g>
    <g transform="matrix(1.42041,0,0,1.42041,-7.02205,-7.1004)">
        <path d="M29.901,25.474C30.753,26.868 32.256,27.377 33.819,27.197C35.668,26.985 37.284,25.767 37.055,23.778C37.016,23.44 36.711,23.197 36.372,23.235C36.034,23.273 35.791,23.579 35.829,23.918C35.978,25.208 34.816,25.841 33.679,25.972C32.594,26.096 31.552,25.813 30.952,24.833C30.357,23.859 31.119,22.914 31.973,22.392C32.865,21.847 34.817,22.197 34.419,23.079C34.216,23.528 33.687,23.929 33.204,24.007C32.683,24.091 32.906,23.636 33.044,23.317C33.178,23.004 33.034,22.641 32.721,22.506C32.408,22.372 32.045,22.516 31.91,22.829C31.645,23.443 31.608,23.936 31.723,24.315C31.825,24.654 32.035,24.896 32.315,25.053C33.453,25.688 35.048,24.684 35.544,23.586C35.921,22.752 35.682,21.948 34.92,21.44L34.917,21.438L34.917,21.437C32.107,19.563 28.258,22.787 29.901,25.474Z" style="fill-rule:nonzero;"/>
    </g>
</svg>
