<?xml version="1.0" encoding="UTF-8" standalone="no"?>
<!DOCTYPE svg PUBLIC "-//W3C//DTD SVG 1.1//EN" "http://www.w3.org/Graphics/SVG/1.1/DTD/svg11.dtd">
<svg width="100%" height="100%" viewBox="0 0 128 128" version="1.1" xmlns="http://www.w3.org/2000/svg" xmlns:xlink="http://www.w3.org/1999/xlink" xml:space="preserve" style="fill-rule:evenodd;clip-rule:evenodd;stroke-linejoin:round;stroke-miterlimit:1.41421;">
    <g transform="matrix(1.50034,0,0,1.50034,-11.2235,-11.017)">
        <path d="M92.026,56.666C92.026,56.637 92.021,56.609 92.018,56.581C92.014,56.534 92.008,56.488 91.999,56.444C91.999,56.439 91.999,56.434 91.997,56.428C91.947,56.217 90.697,51.199 85.734,46.262C81.203,41.753 72.57,36.476 57.181,36.881C57.007,36.885 56.836,36.934 56.684,37.021L53.015,39.103L53.015,28.729C53.015,28.348 52.808,28.001 52.481,27.811L52.484,27.806C52.473,27.801 52.463,27.797 52.454,27.791L52.453,27.791C51.815,27.426 51.191,27.219 50.599,27.111L50.599,24.222C52.307,23.945 55.038,22.773 55.038,18.116C55.038,13.707 50.647,7.996 50.46,7.756C50.259,7.496 49.947,7.343 49.618,7.343C49.289,7.343 48.978,7.495 48.776,7.756C48.589,7.996 44.198,13.707 44.198,18.116C44.198,22.622 46.753,23.866 48.468,24.192L48.468,27.123C47.355,27.334 46.609,27.789 46.55,27.825L46.553,27.83C46.244,28.024 46.051,28.361 46.051,28.728L46.051,43.055L8.512,64.358C8.175,64.548 7.979,64.9 7.974,65.27C7.974,65.275 7.972,65.278 7.972,65.285L7.972,91.592C7.972,91.891 8.097,92.174 8.317,92.376C8.514,92.558 8.771,92.657 9.037,92.657C9.067,92.657 9.097,92.656 9.127,92.654L91.052,85.734C91.605,85.687 92.029,85.227 92.029,84.672L92.029,56.678C92.028,56.673 92.026,56.671 92.026,56.666ZM10.103,66.243L11.923,66.053L10.103,68.312L10.103,66.243ZM48.247,67.997L48.443,67.754L48.44,67.979L48.247,67.997ZM47.058,68.114L43.807,68.432L46.811,64.704C47.205,64.801 47.542,64.971 47.808,65.215C48.148,65.529 48.363,65.963 48.428,66.415L47.058,68.114ZM42.618,68.551L42.533,68.56L42.533,66.824C42.533,66.747 42.568,64.915 45.563,64.633C45.639,64.626 45.712,64.623 45.786,64.62L42.618,68.551ZM42.468,70.706L48.638,70.101C48.908,71.143 49.44,72.041 50.212,72.706C51.395,73.723 53.029,74.14 54.816,73.879C57.522,73.484 59.434,71.4 60.301,68.998L68.986,68.149L89.897,66.146L89.897,74.115L10.103,81.296L10.103,73.789L29.87,71.895C29.966,73.644 30.608,75.165 31.712,76.208C32.711,77.15 33.999,77.644 35.455,77.644C35.567,77.644 35.679,77.642 35.793,77.635C38.942,77.475 42.012,74.174 42.468,70.706ZM78.043,59.175L78.866,59.084L77.731,60.493C77.885,59.99 77.982,59.54 78.043,59.175ZM89.897,64.005L88.124,64.175L89.897,61.976L89.897,64.005ZM89.897,57.867L89.897,60.618L86.937,64.289L83.694,64.6L89.044,57.961L89.897,57.867ZM82.507,64.713L79.264,65.025L84.558,58.458L87.842,58.096L82.507,64.713ZM78.078,65.138L75.883,65.348L74.832,65.45L80.067,58.953L83.356,58.59L78.078,65.138ZM73.645,65.565L70.367,65.881L70.867,65.26C71.304,65.281 71.749,65.268 72.198,65.208C73.033,65.103 73.807,64.857 74.505,64.498L73.645,65.565ZM69.177,65.997L65.962,66.309L67.605,64.273C68.271,64.693 69.039,64.99 69.867,65.146L69.177,65.997ZM64.775,66.424L61.526,66.739L65.322,62.031C65.593,62.174 65.798,62.424 66.082,62.833C66.319,63.177 66.602,63.487 66.919,63.764L64.775,66.424ZM60.82,66.257C60.821,66.191 60.828,66.122 60.827,66.055L60.827,64.199C60.825,63.847 60.945,62.084 63.531,61.905C63.859,61.883 64.129,61.869 64.359,61.866L60.82,66.257ZM29.341,69.805L26.097,70.117L29.85,65.46L29.85,69.176L29.341,69.805ZM24.911,70.229L21.666,70.541L26.519,64.52L29.79,64.174L24.911,70.229ZM20.479,70.655L17.235,70.965L22.051,64.989L25.323,64.645L20.479,70.655ZM16.049,71.079L12.805,71.39L17.585,65.458L20.855,65.114L16.049,71.079ZM11.619,71.502L10.103,71.648L10.103,69.669L13.119,65.927L16.389,65.583L11.619,71.502ZM10.103,85.764L12.218,83.245L14.226,83.065L10.103,87.971L10.103,85.764L10.103,85.764ZM16.634,82.85L18.64,82.667L12.27,90.249L10.272,90.419L16.634,82.85ZM21.048,82.451L23.056,82.27L16.664,89.878L14.666,90.046L21.048,82.451ZM25.464,82.054L27.472,81.872L21.057,89.508L19.059,89.676L25.464,82.054ZM29.88,81.656L31.886,81.475L25.449,89.136L23.452,89.306L29.88,81.656ZM34.294,81.258L36.302,81.077L29.843,88.766L27.845,88.935L34.294,81.258ZM38.71,80.861L40.717,80.679L34.236,88.395L32.238,88.564L38.71,80.861ZM43.125,80.463L45.133,80.284L38.63,88.023L36.633,88.193L43.125,80.463ZM47.541,80.066L49.548,79.885L43.023,87.652L41.026,87.821L47.541,80.066ZM51.956,79.668L53.964,79.489L47.415,87.282L45.419,87.45L51.956,79.668ZM56.373,79.271L58.379,79.09L51.81,86.91L49.812,87.078L56.373,79.271ZM60.786,78.875L62.795,78.694L56.203,86.54L54.206,86.708L60.786,78.875ZM65.202,78.478L67.209,78.296L60.596,86.169L58.599,86.338L65.202,78.478ZM69.617,78.08L71.624,77.899L64.99,85.796L62.991,85.966L69.617,78.08ZM74.032,77.683L76.04,77.501L69.384,85.426L67.385,85.595L74.032,77.683ZM78.448,77.285L80.455,77.105L73.776,85.055L71.779,85.224L78.448,77.285ZM82.864,76.887L84.871,76.708L78.168,84.685L76.172,84.854L82.864,76.887ZM87.279,76.49L89.286,76.31L82.562,84.314L80.565,84.482L87.279,76.49ZM89.897,78.232L89.897,80.441L86.956,83.943L84.958,84.111L89.897,78.232ZM48.183,52.146L48.183,30.382C48.62,30.528 49.092,30.635 49.534,30.635C50.002,30.635 50.467,30.539 50.886,30.405L50.886,52.144C49.844,52.371 48.927,52.314 48.183,52.146ZM46.329,18.116C46.329,15.491 48.411,12.031 49.619,10.243C50.827,12.031 52.908,15.491 52.908,18.116C52.908,21.156 51.438,22.015 50.045,22.15L50.045,20.619C50.045,20.384 49.854,20.194 49.619,20.194C49.384,20.194 49.193,20.384 49.193,20.619L49.193,22.152C47.293,21.98 46.329,20.626 46.329,18.116ZM46.052,45.505L46.052,51.205C45.597,50.916 44.989,51.006 44.647,51.438C44.282,51.899 44.36,52.569 44.821,52.933C44.935,53.024 46.766,54.435 49.539,54.435C50.935,54.435 52.571,54.078 54.347,53.012C54.851,52.709 55.014,52.054 54.712,51.549C54.408,51.045 53.754,50.881 53.25,51.185C53.171,51.232 53.094,51.274 53.017,51.318L53.017,41.552L57.505,39.005C68.901,38.745 78.115,41.745 84.145,47.685C87.353,50.846 88.898,54.087 89.54,55.763L76.97,57.151C76.95,57.152 76.782,57.195 76.773,57.2C76.354,57.33 76.042,57.71 76.024,58.172C76.024,58.182 75.983,59.121 75.548,60.313C74.749,62.511 72.75,62.993 71.929,63.098C70.241,63.312 68.594,62.721 67.837,61.624C66.514,59.707 65.273,59.649 63.384,59.78C59.576,60.043 58.655,62.821 58.698,64.219L58.698,66.061C58.712,68.512 57.115,71.391 54.51,71.771C53.341,71.94 52.309,71.7 51.602,71.089C50.93,70.512 50.57,69.624 50.565,68.542L50.588,66.719C50.598,65.556 50.11,64.436 49.249,63.648C48.572,63.026 47.352,62.327 45.364,62.511C41.44,62.88 40.404,65.493 40.404,66.824L40.403,69.807C40.418,72.409 37.948,75.392 35.684,75.508C34.688,75.565 33.818,75.267 33.176,74.66C32.413,73.939 31.989,72.81 31.982,71.482L31.982,62.986C31.982,62.435 31.562,61.987 31.026,61.931C31.004,61.927 30.828,61.923 30.804,61.926L14.004,63.691L46.052,45.505ZM89.353,83.74L89.898,83.09L89.898,83.694L89.353,83.74Z" style="fill-rule:nonzero;"/>
    </g>
</svg>
