<?xml version="1.0" encoding="UTF-8" standalone="no"?>
<!DOCTYPE svg PUBLIC "-//W3C//DTD SVG 1.1//EN" "http://www.w3.org/Graphics/SVG/1.1/DTD/svg11.dtd">
<svg width="100%" height="100%" viewBox="0 0 128 128" version="1.1" xmlns="http://www.w3.org/2000/svg" xmlns:xlink="http://www.w3.org/1999/xlink" xml:space="preserve" style="fill-rule:evenodd;clip-rule:evenodd;stroke-linejoin:round;stroke-miterlimit:1.41421;">
    <g transform="matrix(1.66967,0,0,1.66967,-19.4842,-19.4833)">
        <path d="M77.885,54.822C72.684,54.926 67.91,56.037 63.128,58.149C59.291,59.843 55.719,61.977 52.168,64.156C56.49,61.112 60.786,58.043 64.683,54.417C69.282,50.139 72.773,45.395 75.355,39.701C76.918,36.255 78.352,32.745 79.679,29.201C76.467,31.201 73.309,33.3 70.239,35.513C65.167,39.168 61.206,43.527 57.919,48.88C55.046,53.56 52.837,58.539 50.639,63.532C52.364,57.334 54.096,51.149 54.971,44.733C55.938,37.64 55.592,30.935 53.758,24.05C52.648,19.883 51.379,15.752 49.991,11.669C48.603,15.752 47.333,19.883 46.224,24.05C44.39,30.935 44.044,37.64 45.011,44.733C45.89,51.183 47.636,57.398 49.37,63.629C47.158,58.604 44.94,53.591 42.048,48.881C38.762,43.528 34.8,39.169 29.728,35.514C26.658,33.302 23.5,31.203 20.288,29.202C21.615,32.745 23.049,36.256 24.612,39.702C27.194,45.396 30.685,50.14 35.284,54.418C39.114,57.981 43.33,61.007 47.577,64C44.11,61.876 40.618,59.803 36.872,58.149C32.09,56.038 27.316,54.926 22.115,54.822C18.967,54.759 15.812,54.815 12.667,54.964C15.251,56.763 17.894,58.488 20.593,60.108C25.054,62.786 29.688,64.383 34.86,65.137C38.876,65.723 42.9,65.83 46.931,65.875C44.303,66.06 41.683,66.306 39.082,66.832C35.342,67.588 32.027,68.938 28.883,71.068C26.98,72.357 25.123,73.72 23.31,75.134C25.609,75.117 27.911,75.032 30.203,74.861C33.991,74.577 37.426,73.577 40.828,71.847C43.708,70.382 46.354,68.573 48.992,66.745L48.992,88.331L50.992,88.331L50.992,66.98C53.518,68.728 56.059,70.445 58.815,71.847C62.216,73.577 65.652,74.578 69.44,74.861C71.732,75.033 74.034,75.117 76.333,75.134C74.521,73.72 72.664,72.357 70.76,71.068C67.615,68.938 64.301,67.589 60.561,66.832C57.98,66.31 55.379,66.063 52.771,65.878C56.901,65.835 61.025,65.736 65.141,65.136C70.313,64.382 74.947,62.784 79.408,60.107C82.108,58.486 84.75,56.761 87.334,54.963C84.188,54.815 81.033,54.759 77.885,54.822ZM50.991,64.822L51.029,64.853C51.016,64.861 51.004,64.868 50.991,64.876L50.991,64.822ZM48.991,64.809L48.991,64.865C48.978,64.857 48.965,64.849 48.952,64.841L48.991,64.809Z" style="fill-rule:nonzero;"/>
    </g>
</svg>
