<?xml version="1.0" encoding="UTF-8" standalone="no"?>
<!DOCTYPE svg PUBLIC "-//W3C//DTD SVG 1.1//EN" "http://www.w3.org/Graphics/SVG/1.1/DTD/svg11.dtd">
<svg width="100%" height="100%" viewBox="0 0 128 128" version="1.1" xmlns="http://www.w3.org/2000/svg" xmlns:xlink="http://www.w3.org/1999/xlink" xml:space="preserve" style="fill-rule:evenodd;clip-rule:evenodd;stroke-linecap:round;stroke-linejoin:round;stroke-miterlimit:1.5;">
    <g transform="matrix(1.62325,0,0,1.62325,-39.4907,-39.6578)">
        <rect x="23.708" y="23.976" width="79.309" height="79.309"/>
        <g transform="matrix(0.928769,0,0,1,5.04076,0.537921)">
            <path d="M99.897,29.484C99.897,28.416 98.963,27.548 97.813,27.548L29.149,27.548C27.999,27.548 27.065,28.416 27.065,29.484L27.065,43.719C27.065,44.787 27.999,45.655 29.149,45.655L97.813,45.655C98.963,45.655 99.897,44.787 99.897,43.719L99.897,29.484Z" style="fill:rgb(235,235,235);"/>
        </g>
        <g transform="matrix(1,0,0,1,-1.45835,-0.959862)">
            <circle cx="65.458" cy="64.96" r="11.609" style="fill:white;"/>
        </g>
        <g transform="matrix(0.716485,0,0,0.716485,17.1001,17.4572)">
            <circle cx="65.458" cy="64.96" r="11.609" style="stroke:black;stroke-width:1.72px;"/>
        </g>
        <g transform="matrix(1.06846,0,0,0.960203,-6.93527,2.47597)">
            <path d="M69.299,84.533C69.299,82.747 67.996,81.296 66.39,81.296C64.785,81.296 63.481,82.747 63.481,84.533L63.481,97.43C63.481,99.216 64.785,100.667 66.39,100.667C67.996,100.667 69.299,99.216 69.299,97.43L69.299,84.533Z" style="fill:white;"/>
        </g>
        <g transform="matrix(1,0,0,1,-0.831198,-0.416928)">
            <circle cx="79.653" cy="68.285" r="1.625" style="fill:white;"/>
        </g>
    </g>
</svg>
