<?xml version="1.0" encoding="UTF-8" standalone="no"?>
<!DOCTYPE svg PUBLIC "-//W3C//DTD SVG 1.1//EN" "http://www.w3.org/Graphics/SVG/1.1/DTD/svg11.dtd">
<svg width="100%" height="100%" viewBox="0 0 128 128" version="1.1" xmlns="http://www.w3.org/2000/svg" xmlns:xlink="http://www.w3.org/1999/xlink" xml:space="preserve" style="fill-rule:evenodd;clip-rule:evenodd;stroke-linecap:round;stroke-linejoin:round;stroke-miterlimit:1.5;">
    <path d="M7.256,3.217L117.984,3.217L124.415,9.649L124.415,122.653C124.415,124.333 123.051,125.697 121.372,125.697L7.256,125.697C5.576,125.697 4.212,124.333 4.212,122.653L4.212,6.261C4.212,4.581 5.576,3.217 7.256,3.217Z" style="stroke:black;stroke-width:2px;"/>
    <g transform="matrix(1,0,0,1,-1.03119,1.88247)">
        <path d="M100.167,-5.638C100.167,-9.144 97.32,-11.991 93.814,-11.991L22.664,-11.991C19.158,-11.991 16.311,-9.144 16.311,-5.638L16.311,35.413C16.311,38.919 19.158,41.766 22.664,41.766L93.814,41.766C97.32,41.766 100.167,38.919 100.167,35.413L100.167,-5.638Z" style="fill:none;stroke:white;stroke-width:0.7px;"/>
    </g>
    <g transform="matrix(1,0,0,1,0.893387,1.88247)">
        <path d="M98.242,-0.673C98.242,-3.36 96.061,-5.541 93.374,-5.541L39.442,-5.541C36.756,-5.541 34.574,-3.36 34.574,-0.673L34.574,36.898C34.574,39.585 36.756,41.766 39.442,41.766L93.374,41.766C96.061,41.766 98.242,39.585 98.242,36.898L98.242,-0.673Z" style="fill:white;"/>
    </g>
    <path d="M86.749,9.048C86.749,7.821 85.752,6.824 84.525,6.824L73.792,6.824C72.565,6.824 71.568,7.821 71.568,9.048L71.568,35.952C71.568,37.18 72.565,38.176 73.792,38.176L84.525,38.176C85.752,38.176 86.749,37.18 86.749,35.952L86.749,9.048Z"/>
    <g transform="matrix(1.10219,0,0,1.03767,-5.99905,-2.16169)">
        <path d="M107.917,59.855C107.917,58.495 106.878,57.392 105.598,57.392L21.625,57.392C20.345,57.392 19.306,58.495 19.306,59.855L19.306,118.246C19.306,119.605 20.345,120.709 21.625,120.709L105.598,120.709C106.878,120.709 107.917,119.605 107.917,118.246L107.917,59.855Z" style="fill:white;stroke:white;stroke-width:1.87px;"/>
    </g>
</svg>
