<?xml version="1.0" encoding="UTF-8" standalone="no"?>
<!DOCTYPE svg PUBLIC "-//W3C//DTD SVG 1.1//EN" "http://www.w3.org/Graphics/SVG/1.1/DTD/svg11.dtd">
<svg width="100%" height="100%" viewBox="0 0 128 128" version="1.1" xmlns="http://www.w3.org/2000/svg" xmlns:xlink="http://www.w3.org/1999/xlink" xml:space="preserve" style="fill-rule:evenodd;clip-rule:evenodd;stroke-linejoin:round;stroke-miterlimit:1.41421;">
    <g transform="matrix(1.99865,0,0,1.99865,-35.9315,-35.6793)">
        <path d="M63.7,41.3C66.621,38.013 64.301,33 60,33C62.389,29.814 60.279,25 56,25L49,25C45.7,25 43,22.3 43,19C43,17.837 41.321,17.597 41.1,18.7L38.3,27C37.58,29.283 38.198,31.598 39.6,33C35.522,33.47 33.487,38.135 36.3,41.3C31.355,43.123 32.227,50.265 37.3,50.901L49.1,81.3C49.298,82.091 50.634,82.096 50.9,81.3L62.7,50.9C67.738,50.269 68.672,43.133 63.7,41.3ZM40.2,27.7L41.9,22.6C43.2,25.2 45.9,27 49,27L56,27C59.987,27 59.987,33 56,33L44,33C41.25,33 39.156,30.205 40.2,27.7ZM40,35L60,35C63.987,35 63.987,41 60,41L40,41C36.013,41 36.013,35 40,35ZM47.2,51L49.5,56.5L47.2,62.1L44.9,56.5L47.2,51ZM52.8,51L55.1,56.5L52.8,62.1L50.5,56.5L52.8,51ZM52.3,63.5L50,69L47.7,63.4L50,57.8L52.3,63.5ZM44.4,57.9L46.7,63.5L45.5,66.5L43.3,60.8L44.4,57.9ZM47.2,64.8L49.5,70.401L48.2,73.6L46,67.8L47.2,64.8ZM50.5,70.4L52.8,64.799L54,67.799L51.8,73.499L50.5,70.4ZM53.4,63.5L55.7,57.9L56.9,60.7L54.7,66.4L53.4,63.5ZM55.6,55.2L53.9,51L57.3,51L55.6,55.2ZM50,55.2L48.3,51L51.7,51L50,55.2ZM44.4,55.2L42.7,51L46.1,51L44.4,55.2ZM41.6,51L43.9,56.5L42.8,59.3L39.5,51L41.6,51ZM50,78.2L48.7,74.8L50,71.6L51.3,74.8L50,78.2ZM57.3,59.3L56.2,56.5L58.5,51L60.6,51L57.3,59.3ZM62,49L38,49C34.013,49 34.013,43 38,43L62,43C65.987,43 65.987,49 62,49Z" style="fill-rule:nonzero;"/>
    </g>
</svg>
