<?xml version="1.0" encoding="UTF-8" standalone="no"?>
<!DOCTYPE svg PUBLIC "-//W3C//DTD SVG 1.1//EN" "http://www.w3.org/Graphics/SVG/1.1/DTD/svg11.dtd">
<svg width="100%" height="100%" viewBox="0 0 128 128" version="1.1" xmlns="http://www.w3.org/2000/svg" xmlns:xlink="http://www.w3.org/1999/xlink" xml:space="preserve" style="fill-rule:evenodd;clip-rule:evenodd;stroke-linejoin:round;stroke-miterlimit:1.41421;">
    <g transform="matrix(1.55907,0,0,1.55907,-16.2955,-16.0585)">
        <path d="M68.8,24.5L72,25.4L73,28.6C73.1,29 73.4,29.2 73.8,29.3L73.9,29.3C74.2,29.3 74.5,29.1 74.7,28.9L76.6,26.2L79.9,26.2C80.3,26.2 80.6,26 80.8,25.6C81,25.2 80.9,24.9 80.7,24.5L78.7,21.9L79.7,18.7C79.8,18.3 79.7,17.9 79.4,17.7C79.1,17.4 78.7,17.3 78.4,17.5L75.3,18.6L72.6,16.7C72.3,16.5 71.9,16.4 71.5,16.6C71.2,16.8 71,17.1 71,17.5L71.1,20.8L68.4,22.8C68.1,23 67.9,23.4 68,23.8C68.1,24.2 68.5,24.4 68.8,24.5ZM71.3,23.1L72.8,22C73.1,21.8 73.2,21.5 73.2,21.2L73.1,19.4L74.6,20.5C74.9,20.7 75.2,20.7 75.5,20.6L77.2,20L76.6,21.7C76.5,22 76.6,22.4 76.8,22.6L77.9,24L76.1,24C75.8,24 75.5,24.2 75.3,24.4L74.3,25.9L73.7,24.2C73.6,23.9 73.3,23.6 73,23.6L71.3,23.1Z" style="fill-rule:nonzero;"/>
    </g>
    <g transform="matrix(1.55907,0,0,1.55907,-16.2955,-16.0585)">
        <path d="M16.4,14L17.8,17L16.1,19.9C15.9,20.2 15.9,20.6 16.1,21C16.3,21.3 16.7,21.5 17.1,21.4L20.4,21L22.6,23.5C22.8,23.7 23.1,23.8 23.4,23.8C23.5,23.8 23.6,23.8 23.7,23.8C24.1,23.7 24.3,23.4 24.4,23L25,19.7L28,18.4C28.3,18.2 28.6,17.9 28.6,17.5C28.6,17.1 28.4,16.8 28.1,16.6L25.2,15L24.9,11.7C24.9,11.3 24.6,11 24.3,10.9C23.9,10.8 23.5,10.8 23.3,11.1L20.9,13.4L17.7,12.7C17.3,12.6 16.9,12.8 16.7,13C16.3,13.3 16.2,13.7 16.4,14ZM18.9,19.2L19.8,17.6C20,17.3 20,17 19.8,16.7L19.1,15L20.9,15.4C21.2,15.5 21.6,15.4 21.8,15.2L23.1,14L23.3,15.8C23.3,16.1 23.5,16.4 23.8,16.6L25.4,17.5L23.7,18.2C23.4,18.3 23.2,18.6 23.1,18.9L22.7,20.7L21.5,19.3C21.3,19 21,18.9 20.7,19L18.9,19.2Z" style="fill-rule:nonzero;"/>
    </g>
    <g transform="matrix(1.55907,0,0,1.55907,-16.2955,-16.0585)">
        <circle cx="27.4" cy="48.6" r="1.2"/>
    </g>
    <g transform="matrix(1.55907,0,0,1.55907,-16.2955,-16.0585)">
        <circle cx="71.9" cy="36.1" r="1.2"/>
    </g>
    <g transform="matrix(1.55907,0,0,1.55907,-16.2955,-16.0585)">
        <circle cx="17" cy="29.5" r="1.2"/>
    </g>
    <g transform="matrix(1.55907,0,0,1.55907,-16.2955,-16.0585)">
        <circle cx="47" cy="27.2" r="1.2"/>
    </g>
    <g transform="matrix(1.55907,0,0,1.55907,-16.2955,-16.0585)">
        <path d="M16.8,71.1C16.8,73.3 18.6,75 20.7,75C22.9,75 24.6,73.2 24.6,71.1C24.6,68.9 22.8,67.2 20.7,67.2C18.6,67.2 16.8,69 16.8,71.1ZM18.8,71.1C18.8,70 19.7,69.2 20.7,69.2C21.7,69.2 22.6,70.1 22.6,71.1C22.6,72.1 21.8,73 20.7,73C19.6,73 18.8,72.2 18.8,71.1Z" style="fill-rule:nonzero;"/>
    </g>
    <g transform="matrix(1.55907,0,0,1.55907,-16.2955,-16.0585)">
        <path d="M46.9,14.8C46.9,17 48.7,18.7 50.8,18.7C53,18.7 54.7,16.9 54.7,14.8C54.7,12.6 52.9,10.9 50.8,10.9C48.6,10.9 46.9,12.7 46.9,14.8ZM48.9,14.8C48.9,13.7 49.8,12.9 50.8,12.9C51.8,12.9 52.7,13.8 52.7,14.8C52.7,15.8 51.8,16.7 50.8,16.7C49.8,16.7 48.9,15.9 48.9,14.8Z" style="fill-rule:nonzero;"/>
    </g>
    <g transform="matrix(1.55907,0,0,1.55907,-16.2955,-16.0585)">
        <path d="M28.3,30.2C28.3,32.4 30.1,34.1 32.2,34.1C34.4,34.1 36.1,32.3 36.1,30.2C36.1,28 34.3,26.3 32.2,26.3C30,26.2 28.3,28 28.3,30.2ZM30.3,30.2C30.3,29.1 31.2,28.3 32.2,28.3C33.2,28.3 34.1,29.2 34.1,30.2C34.1,31.2 33.2,32.1 32.2,32.1C31.2,32.1 30.3,31.2 30.3,30.2Z" style="fill-rule:nonzero;"/>
    </g>
    <g transform="matrix(1.55907,0,0,1.55907,-16.2955,-16.0585)">
        <path d="M33.9,64.1C33.7,64.3 33.6,64.7 33.6,65C33.7,65.3 33.9,65.6 34.2,65.7L89.6,92.3C89.7,92.4 89.9,92.4 90,92.4C90.3,92.4 90.5,92.3 90.7,92.1C91,91.8 91.1,91.3 90.9,91L64.3,35.6C64.2,35.3 63.9,35.1 63.6,35C63.3,34.9 63,35 62.7,35.3L33.9,64.1ZM41.7,67.2L45,55.8L55.9,45L48.6,70.5L41.7,67.2ZM65.9,43.7L57,74.5L50.4,71.3L58.8,42L63.1,37.7L65.9,43.7ZM58.9,75.4L67.2,46.4L72,56.4L65.5,78.6L58.9,75.4ZM67.4,79.5L73.4,59.1L78.2,69L74.2,82.7L67.4,79.5ZM75.9,83.6L79.4,71.7L84.1,81.4L82.5,86.7L75.9,83.6ZM87.8,89.3L84.2,87.6L85.3,84.1L87.8,89.3ZM36.3,64.5L42.1,58.7L39.9,66.2L36.3,64.5Z" style="fill-rule:nonzero;"/>
    </g>
    <g transform="matrix(1.55907,0,0,1.55907,-16.2955,-16.0585)">
        <path d="M49.2,39.4C49,39.6 48.8,39.7 48.5,39.7C48.2,39.7 48,39.6 47.8,39.4C47.4,39 38.2,28.7 38.6,11.3C38.6,10.7 39.1,10.3 39.6,10.3C40.2,10.3 40.6,10.8 40.6,11.3C40.3,27.9 49.2,38 49.3,38.1C49.6,38.4 49.6,39.1 49.2,39.4Z" style="fill-rule:nonzero;"/>
    </g>
    <g transform="matrix(1.55907,0,0,1.55907,-16.2955,-16.0585)">
        <path d="M12.8,37.5C30.1,34.9 40.6,47.8 40.8,48C41.1,48.4 41.1,49.1 40.6,49.4C40.4,49.5 40.2,49.6 40,49.6C39.7,49.6 39.4,49.5 39.2,49.2C39.1,49.1 29.3,37 13.1,39.5C12.6,39.6 12,39.2 12,38.7C12,38.2 12.2,37.6 12.8,37.5Z" style="fill-rule:nonzero;"/>
    </g>
    <g transform="matrix(1.55907,0,0,1.55907,-16.2955,-16.0585)">
        <path d="M57,32.4C56.9,32.4 56.8,32.4 56.8,32.4C56.3,32.4 55.9,32.1 55.8,31.6C55.7,31.2 53.5,21.2 60.3,15.2C60.7,14.8 61.3,14.9 61.7,15.3C62.1,15.7 62,16.3 61.6,16.7C55.7,21.9 57.7,31.1 57.7,31.2C57.9,31.7 57.5,32.2 57,32.4Z" style="fill-rule:nonzero;"/>
    </g>
    <g transform="matrix(1.55907,0,0,1.55907,-16.2955,-16.0585)">
        <path d="M32.5,55.4C33,55.6 33.3,56.1 33.2,56.6C33,57.1 32.5,57.4 32,57.3C31.9,57.3 20.7,53.9 15.8,60.8C15.6,61.1 15.3,61.2 15,61.2C14.8,61.2 14.6,61.1 14.4,61C14,60.7 13.8,60.1 14.2,59.6C19.8,51.6 32,55.3 32.5,55.4Z" style="fill-rule:nonzero;"/>
    </g>
</svg>
