<?xml version="1.0" encoding="UTF-8" standalone="no"?>
<!DOCTYPE svg PUBLIC "-//W3C//DTD SVG 1.1//EN" "http://www.w3.org/Graphics/SVG/1.1/DTD/svg11.dtd">
<svg width="100%" height="100%" viewBox="0 0 128 128" version="1.1" xmlns="http://www.w3.org/2000/svg" xmlns:xlink="http://www.w3.org/1999/xlink" xml:space="preserve" style="fill-rule:evenodd;clip-rule:evenodd;stroke-linejoin:round;stroke-miterlimit:1.41421;">
    <g transform="matrix(1.2772,0,0,1.2772,-6.24672,-6.38599)">
        <path d="M47.982,18.062C47.458,17.287 47.11,16.476 47.256,16.133C47.273,16.1 47.297,16.075 47.327,16.061C48.08,16.251 49.775,17.772 49.549,18.089C49.497,18.167 49.146,18.222 48.768,18.235C48.749,18.238 48.732,18.238 48.713,18.235C48.382,18.225 48.079,18.172 47.982,18.062Z" style="fill-rule:nonzero;"/>
    </g>
    <g transform="matrix(1.2772,0,0,1.2772,-6.24672,-6.38599)">
        <path d="M62.786,16.132C62.932,16.474 62.588,17.287 62.062,18.063C61.965,18.174 61.662,18.226 61.33,18.237C61.31,18.24 61.291,18.237 61.275,18.237C60.896,18.223 60.545,18.168 60.493,18.091C60.266,17.773 61.963,16.251 62.717,16.061C62.748,16.074 62.772,16.099 62.786,16.132Z" style="fill-rule:nonzero;"/>
    </g>
    <g transform="matrix(1.2772,0,0,1.2772,-6.24672,-6.38599)">
        <path d="M80.774,53.568C81.576,56.355 83.391,67.36 80.286,68.656C78.779,69.12 78.456,63.398 76.866,58.984C76.143,56.976 73.661,49.568 71.385,49.568C75.318,60.529 76.639,69.798 76.639,77.309C76.639,87.855 73.403,92.52 70.654,94.447C69.741,95.087 68.85,95.561 67.979,95.905C68.495,96.841 69.515,97.107 70.991,97.613C72.962,98.288 76.165,99.756 75.403,100.588C74.579,101.486 70.432,100.207 70.358,100.874C70.284,101.54 72.514,103.817 71.963,104.701C71.328,105.722 69.01,103.799 69.01,103.799C68.039,103.008 66.949,102.25 66.178,102.076C64.053,101.6 63.088,102.852 62.02,102.285C61.25,101.418 63.219,100.255 63.325,98.327C63.354,97.802 63.323,97.24 63.263,96.706C60.785,96.669 58.382,96.068 55.916,95.911L54.084,95.911C51.604,96.07 49.19,96.675 46.693,96.708C46.635,97.242 46.604,97.802 46.633,98.327C46.739,100.255 48.708,101.418 47.938,102.285C46.87,102.852 45.905,101.6 43.781,102.076C43.009,102.25 41.92,103.008 40.949,103.799C40.949,103.799 38.63,105.723 37.994,104.701C37.444,103.817 39.675,101.54 39.601,100.874C39.526,100.207 35.379,101.486 34.556,100.588C33.794,99.756 36.997,98.288 38.968,97.613C40.45,97.103 41.475,96.839 41.987,95.89C41.126,95.548 40.248,95.078 39.347,94.447C36.6,92.52 33.362,87.855 33.362,77.309C33.362,69.798 34.685,60.529 38.618,49.568C36.341,49.568 33.856,56.976 33.134,58.984C31.546,63.398 31.372,69.223 29.716,68.656C26.611,67.36 28.424,56.355 29.227,53.568C32.103,43.571 36.92,39.252 39.939,34.857C42.595,30.985 46.427,25.224 44.249,21.618C43.421,20.152 43.158,18.461 43.282,17.254C43.487,15.227 44.286,12.931 45.094,11.108C46.082,8.87 48.425,5.414 53.29,5L56.752,5C61.617,5.414 63.958,8.87 64.947,11.107C65.755,12.931 66.556,15.227 66.761,17.253C66.884,18.46 66.622,20.151 65.794,21.617C63.615,25.223 67.448,30.985 70.104,34.856L70.078,34.875C73.094,39.265 77.901,43.585 80.774,53.568ZM68.562,90.789C76.638,82.888 70.47,59.912 68.279,51.626C65.66,41.739 62.66,34.514 55,34.108C47.34,34.514 44.34,41.739 41.722,51.627C39.529,59.913 33.36,82.888 41.436,90.79C45.047,94.322 49.616,91.84 54.024,91.78L55.976,91.78C60.383,91.839 64.951,94.321 68.562,90.789ZM56.686,18.566C57.082,18.459 56.415,17.372 55.274,17.274L55.235,17.274L54.808,17.274L54.768,17.274C53.627,17.371 52.959,18.458 53.357,18.566C53.866,18.707 54.319,19.342 54.456,20.117C54.515,20.446 54.643,20.794 54.831,21.034C54.831,21.034 54.874,21.098 54.997,21.098L55.045,21.098C55.168,21.098 55.211,21.034 55.211,21.034C55.399,20.794 55.527,20.446 55.586,20.117C55.723,19.343 56.176,18.708 56.686,18.566ZM55.236,25.956C61.588,26.076 66.324,21.511 65.117,15.766C64.79,14.209 64.178,11.176 62.426,11.315C61.557,11.383 60.514,12.35 59.718,13.479C58.971,14.537 58.307,17.278 58.725,18.607C58.873,19.079 59.793,19.369 59.627,20.071C59.258,21.632 57.967,22.41 55.65,22.503L54.334,22.503C52.017,22.41 50.725,21.631 50.356,20.071C50.19,19.369 51.109,19.079 51.259,18.607C51.677,17.278 51.012,14.537 50.265,13.479C49.47,12.351 48.426,11.384 47.557,11.315C45.806,11.176 45.193,14.209 44.866,15.766C43.659,21.511 48.396,26.076 54.748,25.956L55.236,25.956Z" style="fill-rule:nonzero;"/>
    </g>
</svg>
