<?xml version="1.0" encoding="UTF-8" standalone="no"?>
<!DOCTYPE svg PUBLIC "-//W3C//DTD SVG 1.1//EN" "http://www.w3.org/Graphics/SVG/1.1/DTD/svg11.dtd">
<svg width="100%" height="100%" viewBox="0 0 128 128" version="1.1" xmlns="http://www.w3.org/2000/svg" xmlns:xlink="http://www.w3.org/1999/xlink" xml:space="preserve" style="fill-rule:evenodd;clip-rule:evenodd;stroke-linejoin:round;stroke-miterlimit:1.41421;">
    <g transform="matrix(1.3913,0,0,1.3913,-5.56519,-1330.59)">
        <path d="M50,956.362C51.105,956.362 52,957.258 52,958.362L52,960.362L48,960.362L48,958.362C48,957.258 48.895,956.362 50,956.362ZM54.969,960.706C74.238,963.294 89.875,980.615 90,1000.36C88.29,998.078 84.306,995.362 80,995.362C76.838,995.362 73.923,996.743 71.906,998.393C71.197,981.992 64.308,968.097 54.969,960.706ZM45.031,960.706C35.692,968.097 28.803,981.992 28.094,998.393C26.077,996.743 23.162,995.362 20,995.362C15.694,995.362 11.71,998.078 10,1000.36C10.125,980.615 25.763,963.294 45.031,960.706ZM52,963.487C60.276,969.824 67.137,982.74 67.906,998.237C65.901,996.656 63.07,995.362 60,995.362C56.942,995.362 54.043,996.769 52,998.393L52,963.487ZM48,963.487L48,998.393C45.957,996.769 43.058,995.362 40,995.362C36.93,995.362 34.099,996.656 32.094,998.237C32.863,982.74 39.724,969.824 48,963.487ZM52,1002.36L52,1037.36C52,1041.77 54.591,1044.36 59,1044.36C63.409,1044.36 66,1041.77 66,1037.36C65.985,1036.31 66.943,1035.33 68,1035.33C69.057,1035.33 70.015,1036.31 70,1037.36C70,1043.6 65.249,1048.36 59,1048.36C52.751,1048.36 48,1043.6 48,1037.36L48,1002.36L52,1002.36Z" style="fill-rule:nonzero;"/>
    </g>
</svg>
